<svg xmlns="http://www.w3.org/2000/svg" data-i18n="off" lang="tr" width="297mm" height="210mm" viewBox="0 0 1120 792" role="img" aria-label="Ortak kapaklı dolap: Arka görünüş" data-drawing-view="back" data-annotation-page="1" data-annotation-page-count="1" data-annotation-label-count="4"><title>Ortak kapaklı dolap — Arka görünüş</title><rect width="1120" height="792" fill="white"/><g font-family="Arial, sans-serif"><text data-document-id="AT-98E7F2BD036D8129" x="60" y="18" font-size="14" fill="#46554b">Takım: AT-98E7F2BD036D8129 · Tarih: 2026-10-10 · Sayfa: 1/1</text><text x="60" y="44" font-size="20" font-weight="600" fill="#233c34">Ortak kapaklı dolap</text><text x="60" y="66" font-size="14" fill="#617268">Arka görünüş · Tüm ölçüler milimetredir</text><path d="M60,80 H1060" stroke="#c3cec6"/><g data-drawing-scene="true" transform="translate(60,91)"><polygon points="507.95,291.98 507.95,255.62 506.36,255.62 506.36,291.98" data-component="door-handle" data-section-id="interior-outer" data-door-opening="left" data-front-index="1" fill="#57534b" fill-opacity="1" stroke="#55594f" stroke-width="0.9"/><polygon points="493.86,291.98 493.86,255.62 492.27,255.62 492.27,291.98" data-component="door-handle" data-section-id="interior-outer" data-door-opening="right" data-front-index="2" fill="#57534b" fill-opacity="1" stroke="#55594f" stroke-width="0.9"/><polygon points="601.82,496.82 601.82,20.45 500.23,20.45 500.23,496.82" data-component="front" data-section-id="interior-outer" data-door-opening="left" data-front-index="1" fill="#997855" fill-opacity="1" stroke="#55594f" stroke-width="0.9"/><polygon points="499.77,496.82 499.77,20.45 398.18,20.45 398.18,496.82" data-component="front" data-section-id="interior-outer" data-door-opening="right" data-front-index="2" fill="#997855" fill-opacity="1" stroke="#55594f" stroke-width="0.9"/><polygon points="518.18,349.32 518.18,347.73 481.82,347.73 481.82,349.32" data-component="internal-drawer-handle" data-section-id="interior-outer" fill="#57534b" fill-opacity="1" stroke="#55594f" stroke-width="0.9"/><polygon points="518.18,436.41 518.18,434.82 481.82,434.82 481.82,436.41" data-component="internal-drawer-handle" data-section-id="interior-outer" fill="#57534b" fill-opacity="1" stroke="#55594f" stroke-width="0.9"/><polygon points="593.18,405.64 593.18,319 406.82,319 406.82,405.64" data-component="internal-drawer-front" data-part-id="cabinet-1-part-14" data-section-id="interior-outer" data-interior-section-id="interior-drawers" fill="#c3c3bf" fill-opacity="1" stroke="#55594f" stroke-width="0.9"/><polygon points="593.18,492.73 593.18,406.09 406.82,406.09 406.82,492.73" data-component="internal-drawer-front" data-part-id="cabinet-1-part-20" data-section-id="interior-outer" data-interior-section-id="interior-drawers" fill="#c3c3bf" fill-opacity="1" stroke="#55594f" stroke-width="0.9"/><polygon points="586.59,399.27 586.59,323.55 413.41,323.55 413.41,399.27" data-component="internal-drawer-box" data-part-id="cabinet-1-part-17" data-section-id="interior-outer" data-interior-section-id="interior-drawers" fill="#c3c3bf" fill-opacity="1" stroke="#55594f" stroke-width="0.9"/><polygon points="586.59,486.36 586.59,410.64 413.41,410.64 413.41,486.36" data-component="internal-drawer-box" data-part-id="cabinet-1-part-23" data-section-id="interior-outer" data-interior-section-id="interior-drawers" fill="#c3c3bf" fill-opacity="1" stroke="#55594f" stroke-width="0.9"/><polygon points="598.18,520 598.18,499.55 401.82,499.55 401.82,520" data-component="plinth" data-part-id="cabinet-1-part-9" data-section-id="interior-outer" fill="#c3c3bf" fill-opacity="1" stroke="#55594f" stroke-width="0.9"/><polygon points="590.68,399.27 590.68,323.55 586.59,323.55 586.59,399.27" data-component="internal-drawer-box" data-part-id="cabinet-1-part-15" data-section-id="interior-outer" data-interior-section-id="interior-drawers" fill="#c3c3bf" fill-opacity="1" stroke="#55594f" stroke-width="0.9"/><polygon points="590.68,486.36 590.68,410.64 586.59,410.64 586.59,486.36" data-component="internal-drawer-box" data-part-id="cabinet-1-part-21" data-section-id="interior-outer" data-interior-section-id="interior-drawers" fill="#c3c3bf" fill-opacity="1" stroke="#55594f" stroke-width="0.9"/><polygon points="586.59,399.27 586.59,323.55 413.41,323.55 413.41,399.27" data-component="internal-drawer-box" data-part-id="cabinet-1-part-18" data-section-id="interior-outer" data-interior-section-id="interior-drawers" fill="#c3c3bf" fill-opacity="1" stroke="#55594f" stroke-width="0.9"/><polygon points="590.68,401.09 409.32,401.09 409.32,399.27 590.68,399.27" data-component="internal-drawer-box" data-part-id="cabinet-1-part-19" data-section-id="interior-outer" data-interior-section-id="interior-drawers" fill="#c3c3bf" fill-opacity="1" stroke="#55594f" stroke-width="0.9"/><polygon points="586.59,486.36 586.59,410.64 413.41,410.64 413.41,486.36" data-component="internal-drawer-box" data-part-id="cabinet-1-part-24" data-section-id="interior-outer" data-interior-section-id="interior-drawers" fill="#c3c3bf" fill-opacity="1" stroke="#55594f" stroke-width="0.9"/><polygon points="590.68,488.18 409.32,488.18 409.32,486.36 590.68,486.36" data-component="internal-drawer-box" data-part-id="cabinet-1-part-25" data-section-id="interior-outer" data-interior-section-id="interior-drawers" fill="#c3c3bf" fill-opacity="1" stroke="#55594f" stroke-width="0.9"/><polygon points="413.41,399.27 413.41,323.55 409.32,323.55 409.32,399.27" data-component="internal-drawer-box" data-part-id="cabinet-1-part-16" data-section-id="interior-outer" data-interior-section-id="interior-drawers" fill="#c3c3bf" fill-opacity="1" stroke="#55594f" stroke-width="0.9"/><polygon points="413.41,486.36 413.41,410.64 409.32,410.64 409.32,486.36" data-component="internal-drawer-box" data-part-id="cabinet-1-part-22" data-section-id="interior-outer" data-interior-section-id="interior-drawers" fill="#c3c3bf" fill-opacity="1" stroke="#55594f" stroke-width="0.9"/><polygon points="602.27,520 602.27,20 598.18,20 598.18,520" data-component="body" data-part-id="cabinet-1-part-1" fill="#c3c3bf" fill-opacity="1" stroke="#55594f" stroke-width="0.9"/><polygon points="598.18,24.09 401.82,24.09 401.82,20 598.18,20" data-component="body" data-part-id="cabinet-1-part-3" fill="#c3c3bf" fill-opacity="1" stroke="#55594f" stroke-width="0.9"/><polygon points="598.18,497.27 401.82,497.27 401.82,493.18 598.18,493.18" data-component="bottom" data-part-id="cabinet-1-part-4" data-section-id="interior-outer" fill="#c3c3bf" fill-opacity="1" stroke="#55594f" stroke-width="0.9"/><polygon points="598.18,307.18 401.82,307.18 401.82,303.09 598.18,303.09" data-component="interior-partition" data-part-id="cabinet-1-part-5" data-section-id="interior-outer" data-interior-section-id="interior-layout" fill="#c3c3bf" fill-opacity="1" stroke="#55594f" stroke-width="0.9"/><polygon points="597.73,236.41 402.27,236.41 402.27,232.32 597.73,232.32" data-component="interior-shelf" data-part-id="cabinet-1-part-6" data-section-id="interior-outer" data-interior-section-id="interior-shelves" fill="#c3c3bf" fill-opacity="1" stroke="#55594f" stroke-width="0.9"/><polygon points="597.73,165.64 402.27,165.64 402.27,161.55 597.73,161.55" data-component="interior-shelf" data-part-id="cabinet-1-part-7" data-section-id="interior-outer" data-interior-section-id="interior-shelves" fill="#c3c3bf" fill-opacity="1" stroke="#55594f" stroke-width="0.9"/><polygon points="597.73,94.86 402.27,94.86 402.27,90.77 597.73,90.77" data-component="interior-shelf" data-part-id="cabinet-1-part-8" data-section-id="interior-outer" data-interior-section-id="interior-shelves" fill="#c3c3bf" fill-opacity="1" stroke="#55594f" stroke-width="0.9"/><polygon points="598.18,493.18 598.18,470.45 401.82,470.45 401.82,493.18" data-component="brace" data-part-id="cabinet-1-part-10" data-section-id="interior-outer" fill="#c3c3bf" fill-opacity="1" stroke="#55594f" stroke-width="0.9"/><polygon points="598.18,46.82 598.18,24.09 401.82,24.09 401.82,46.82" data-component="brace" data-part-id="cabinet-1-part-11" data-section-id="interior-outer" fill="#c3c3bf" fill-opacity="1" stroke="#55594f" stroke-width="0.9"/><polygon points="401.82,520 401.82,20 397.73,20 397.73,520" data-component="body" data-part-id="cabinet-1-part-2" fill="#c3c3bf" fill-opacity="1" stroke="#55594f" stroke-width="0.9"/><g data-label-leaders="true"><path data-label-leader="1" d="M500,481.82 L780,481.82 L790,481.82" fill="none" stroke="#53605b" stroke-width=".8"/><circle cx="500" cy="481.82" r="2.3" fill="#53605b"/><path data-label-leader="2" d="M500,35.45 L780,35.45 L790,35.45" fill="none" stroke="#53605b" stroke-width=".8"/><circle cx="500" cy="35.45" r="2.3" fill="#53605b"/></g><g data-brace-id="interior-brace-bottom" data-section-id="interior-outer" data-mount-cabinet-mm="118" data-mount-section-mm="0"><g data-callout-index="1" data-callout-page="1" data-label-x="790" data-label-y="468.82" data-label-width="210" data-label-height="26" data-label-kind="name" data-source-anchor-x="500" data-source-anchor-y="481.82"><title>C1 · S1 · 864 × 100 × 18 mm · Dolap tabanından alt kenar: 118 mm · Bölme tabanından alt kenar: 0 mm</title><rect x="790" y="468.82" width="210" height="26" rx="2" fill="white" fill-opacity=".94"/><text x="796" y="486.82" font-size="14" fill="#35433d">C1</text></g></g><g data-brace-id="interior-brace-top" data-section-id="interior-outer" data-mount-cabinet-mm="2082" data-mount-section-mm="1964"><g data-callout-index="2" data-callout-page="1" data-label-x="790" data-label-y="22.45" data-label-width="210" data-label-height="26" data-label-kind="name" data-source-anchor-x="500" data-source-anchor-y="35.45"><title>C2 · S1 · 864 × 100 × 18 mm · Dolap tabanından alt kenar: 2.082 mm · Bölme tabanından alt kenar: 1.964 mm</title><rect x="790" y="22.45" width="210" height="26" rx="2" fill="white" fill-opacity=".94"/><text x="796" y="40.45" font-size="14" fill="#35433d">C2</text></g></g><g fill="none" stroke="#53605b" stroke-width="1"><path d="M602.27,520 L602.27,543"/><path d="M397.73,520 L397.73,543"/><path d="M602.27,548 L397.73,548"/><path d="M598.27,552 L606.27,544"/><path d="M393.73,552 L401.73,544"/></g><g data-callout-index="3" data-callout-page="1" data-label-x="481" data-label-y="538" data-label-width="38" data-label-height="20" data-label-kind="dimension" data-source-anchor-x="500" data-source-anchor-y="548"><title>900</title><g data-drawing-label="dimension" data-anchor-x="500" data-anchor-y="548"><rect x="481" y="538" width="38" height="20" fill="white"/><text x="500" y="552" text-anchor="middle" font-size="14" fill="#35433d">900</text></g></g><g fill="none" stroke="#53605b" stroke-width="1"><path d="M602.27,520 L637.27,520"/><path d="M602.27,20 L637.27,20"/><path d="M632.27,520 L632.27,20"/><path d="M628.27,524 L636.27,516"/><path d="M628.27,24 L636.27,16"/></g><g data-callout-index="4" data-callout-page="1" data-label-x="622.27" data-label-y="243" data-label-width="20" data-label-height="54" data-label-kind="dimension" data-source-anchor-x="632.27" data-source-anchor-y="270"><title>2.200</title><g data-drawing-label="dimension" data-anchor-x="632.27" data-anchor-y="270"><rect x="605.27" y="260" width="54" height="20" fill="white" transform="rotate(-90 632.27 270)"/><text x="632.27" y="274" text-anchor="middle" font-size="14" fill="#35433d" transform="rotate(-90 632.27 270)">2.200</text></g></g></g><path d="M60,741 H1060" stroke="#c3cec6"/><text x="60" y="764" font-size="14" fill="#617268">Ön panelsiz gövde: 900 × 2.200 × 620 mm</text><text x="1060" y="764" text-anchor="end" font-size="14" fill="#617268">Ölçek ≈ 1:17 %100 baskıda · A4</text><text data-reading-note="not-to-scale" x="60" y="713" font-size="14" fill="#46554b">Çizim üzerinden ölçmeyin. Yazılı ölçüleri kullanın.</text><text x="60" y="733" font-size="14" fill="#46554b">Ölçüler nominaldir. Üretim toleranslarını atölyeyle belirleyin.</text></g></svg>