<svg xmlns="http://www.w3.org/2000/svg" width="270mm" height="126mm" viewBox="0 0 1080 504" data-i18n="off" lang="tr" role="img" aria-labelledby="room-plan-title"><title id="room-plan-title">Oda planı</title><desc>Duvar ölçüleri, mobilya ve açıklıkların yerleşimi</desc><defs><marker id="room-plan-arrow" markerWidth="5" markerHeight="5" refX="4" refY="2.5" orient="auto"><path d="M0 0L5 2.5L0 5Z" fill="#52665b"/></marker></defs><style>svg{font-family:Arial,Helvetica,sans-serif}.room-floor{fill:#f9faf7;stroke:#25372c;stroke-width:3;stroke-linejoin:round}.cabinet-physical{fill-opacity:.3;stroke:#1c4a36;stroke-width:1.6;stroke-linejoin:round}.cabinet-carcass{fill:none;stroke:#5c7566;stroke-width:.7}.elevated .cabinet-physical{stroke-dasharray:6 3;fill-opacity:.12}.wall-dimension{fill:none;stroke:#5d675f;stroke-width:.9}.wall-direction{stroke:#74877b}.opening-erase{stroke:#fff;stroke-width:7}.window-glass{stroke:#236886;stroke-width:1.8}.door-gap{stroke:#94653b;stroke-width:1.8;stroke-dasharray:4 3}.opening-jamb{stroke:#25372c;stroke-width:1.2;fill:none}.invalid .window-glass,.invalid .door-gap{stroke:#b22929}.label-leader{stroke:#87928b;stroke-width:.7;fill:none}.print-label rect{fill:#fff;fill-opacity:.94}.print-label text{fill:#1c3022}.opening-label text{fill:#236886}.invalid-label text{fill:#b22929}.scale-bar{fill:none;stroke:#263c2d;stroke-width:1.5}.scale-bar text{fill:#263c2d;stroke:none;font-size:12}.print-scale{font-size:11;fill:#59675d}</style><polygon class="room-floor" points="311.4706,58 768.5294,58 768.5294,319.1765 659.7059,319.1765 659.7059,428 311.4706,428"/><g class="cabinet floor-cabinet" data-cabinet-id="cabinet-1"><title>C1 · Gardırop · 900 × 2.200 × 620 mm · Y=0 mm · 0°</title><polygon class="cabinet-physical" points="360.4412,59.0882 458.3824,59.0882 458.3824,128.5176 360.4412,128.5176" fill="#eeeee9"/><polygon class="cabinet-carcass" points="360.4412,59.0882 458.3824,59.0882 458.3824,126.5588 360.4412,126.5588"/></g><g class="wall-dimension" data-wall-index="0" data-length-mm="4200"><path d="M311.4706 53L311.4706 26M768.5294 53L768.5294 26M311.4706 31L768.5294 31M308.4706 35l6 -8M765.5294 35l6 -8"/><path class="wall-direction" d="M402.8824 66l18 0" marker-end="url(#room-plan-arrow)"/></g><g class="wall-dimension" data-wall-index="1" data-length-mm="2400"><path d="M773.5294 58L800.5294 58M773.5294 319.1765L800.5294 319.1765M795.5294 58L795.5294 319.1765M791.5294 55l8 6M791.5294 316.1765l8 6"/><path class="wall-direction" d="M760.5294 110.2353l0 18" marker-end="url(#room-plan-arrow)"/></g><g class="wall-dimension" data-wall-index="2" data-length-mm="1000"><path d="M768.5294 324.1765L768.5294 351.1765M659.7059 324.1765L659.7059 351.1765M768.5294 346.1765L659.7059 346.1765M771.5294 342.1765l-6 8M662.7059 342.1765l-6 8"/><path class="wall-direction" d="M746.7647 311.1765l-18 0" marker-end="url(#room-plan-arrow)"/></g><g class="wall-dimension" data-wall-index="3" data-length-mm="1000"><path d="M664.7059 319.1765L691.7059 319.1765M664.7059 428L691.7059 428M686.7059 319.1765L686.7059 428M682.7059 316.1765l8 6M682.7059 425l8 6"/><path class="wall-direction" d="M651.7059 340.9412l0 18" marker-end="url(#room-plan-arrow)"/></g><g class="wall-dimension" data-wall-index="4" data-length-mm="3200"><path d="M659.7059 433L659.7059 460M311.4706 433L311.4706 460M659.7059 455L311.4706 455M662.7059 451l-6 8M314.4706 451l-6 8"/><path class="wall-direction" d="M590.0588 420l-18 0" marker-end="url(#room-plan-arrow)"/></g><g class="wall-dimension" data-wall-index="5" data-length-mm="3400"><path d="M306.4706 428L279.4706 428M306.4706 58L279.4706 58M284.4706 428L284.4706 58M288.4706 431l-8 -6M288.4706 61l-8 -6"/><path class="wall-direction" d="M319.4706 354l0 -18" marker-end="url(#room-plan-arrow)"/></g><g class="opening window" data-opening-id="window-1" data-offset-mm="100" data-width-mm="800"><title>W1 · Pencere · S4 · 800 × 1.200 mm</title><line class="opening-erase" x1="659.7059" y1="330.0588" x2="659.7059" y2="417.1176"/><line class="window-glass" x1="657.7059" y1="330.0588" x2="657.7059" y2="417.1176"/><line class="window-glass" x1="661.7059" y1="330.0588" x2="661.7059" y2="417.1176"/><path class="opening-jamb" d="M654.7059 330.0588L664.7059 330.0588M654.7059 417.1176L664.7059 417.1176"/></g><g class="print-label cabinet-label"><title>C1 · Gardırop · 900 × 2.200 × 620 mm · Y=0 mm · 0°</title><rect x="396.4118" y="83.8029" width="26" height="20" rx="2"/><text x="409.4118" y="97.8829" font-size="12" text-anchor="middle">C1</text></g><path class="label-leader" d="M540 58L540 15.5"/><g class="print-label wall-label"><title>S1 · 4.200</title><rect x="493.4" y="5" width="93.2" height="21" rx="2"/><text x="540" y="19.92" font-size="13" text-anchor="middle">S1 · 4.200</text></g><path class="label-leader" d="M768.5294 188.5882L812.5294 188.5882"/><g class="print-label wall-label"><title>S2 · 2.400</title><rect x="765.9294" y="178.0882" width="93.2" height="21" rx="2"/><text x="812.5294" y="193.0082" font-size="13" text-anchor="middle">S2 · 2.400</text></g><path class="label-leader" d="M714.1176 319.1765L714.1176 363.1765"/><g class="print-label wall-label"><title>S3 · 1.000</title><rect x="667.5176" y="352.6765" width="93.2" height="21" rx="2"/><text x="714.1176" y="367.5965" font-size="13" text-anchor="middle">S3 · 1.000</text></g><path class="label-leader" d="M659.7059 373.5882L709.8288 388.3703"/><g class="print-label wall-label"><title>S4 · 1.000</title><rect x="663.2288" y="377.8703" width="93.2" height="21" rx="2"/><text x="709.8288" y="392.7903" font-size="13" text-anchor="middle">S4 · 1.000</text></g><path class="label-leader" d="M485.5882 428L485.5882 462.5"/><g class="print-label wall-label"><title>S5 · 3.200</title><rect x="438.9882" y="452" width="93.2" height="21" rx="2"/><text x="485.5882" y="466.92" font-size="13" text-anchor="middle">S5 · 3.200</text></g><path class="label-leader" d="M311.4706 243L267.4706 243"/><g class="print-label wall-label"><title>S6 · 3.400</title><rect x="220.8706" y="232.5" width="93.2" height="21" rx="2"/><text x="267.4706" y="247.42" font-size="13" text-anchor="middle">S6 · 3.400</text></g><path class="label-leader" d="M659.7059 373.5882L698.0747 417.9345"/><g class="print-label opening-label"><title>W1 · Pencere · S4 · 800 × 1.200 mm</title><rect x="662.3547" y="407.9345" width="71.44" height="20" rx="2"/><text x="698.0747" y="422.0145" font-size="12" text-anchor="middle">W1 · 800</text></g><text class="print-scale" x="24" y="488">Ölçek ≈ 1:36,8 · %100 baskıda</text><g class="scale-bar" data-length-mm="1000"><path d="M941.1765 478V486M941.1765 482h108.8235M1050 478V486"/><text x="995.5882" y="474" text-anchor="middle">1.000 mm</text></g></svg>