<svg xmlns="http://www.w3.org/2000/svg" data-i18n="off" lang="tr" width="297mm" height="210mm" viewBox="0 0 1120 792" role="img" aria-label="Dolap · bölme arkalıkları: Arka görünüş" data-drawing-view="back" data-annotation-page="1" data-annotation-page-count="1" data-annotation-label-count="2"><title>Dolap · bölme arkalıkları — Arka görünüş</title><rect width="1120" height="792" fill="white"/><g font-family="Arial, sans-serif"><text data-document-id="AT-41C3F02254F58AED" x="60" y="18" font-size="14" fill="#46554b">Takım: AT-41C3F02254F58AED · Tarih: 2026-10-10 · Sayfa: 1/1</text><text x="60" y="44" font-size="20" font-weight="600" fill="#233c34">Dolap · bölme arkalıkları</text><text x="60" y="66" font-size="14" fill="#617268">Arka görünüş · Tüm ölçüler milimetredir</text><path d="M60,80 H1060" stroke="#c3cec6"/><g data-drawing-scene="true" transform="translate(60,91)"><polygon points="689.44,520 689.44,495 310.56,495 310.56,520" data-component="plinth" data-part-id="section-backs-cabinet-part-10" fill="#c3c3bf" fill-opacity="1" stroke="#55594f" stroke-width="0.9"/><polygon points="694.44,520 694.44,20 689.44,20 689.44,520" data-component="body" data-part-id="section-backs-cabinet-part-1" fill="#c3c3bf" fill-opacity="1" stroke="#55594f" stroke-width="0.9"/><polygon points="689.44,258.61 502.5,258.61 502.5,253.61 689.44,253.61" data-component="partition" data-part-id="section-backs-cabinet-part-7" fill="#c3c3bf" fill-opacity="1" stroke="#55594f" stroke-width="0.9"/><polygon points="689.44,25 310.56,25 310.56,20 689.44,20" data-component="body" data-part-id="section-backs-cabinet-part-3" fill="#c3c3bf" fill-opacity="1" stroke="#55594f" stroke-width="0.9"/><polygon points="689.44,492.22 310.56,492.22 310.56,487.22 689.44,487.22" data-component="bottom" data-part-id="section-backs-cabinet-part-4" fill="#c3c3bf" fill-opacity="1" stroke="#55594f" stroke-width="0.9"/><polygon points="502.5,487.22 502.5,25 497.5,25 497.5,487.22" data-component="partition" data-part-id="section-backs-cabinet-part-8" fill="#c3c3bf" fill-opacity="1" stroke="#55594f" stroke-width="0.9"/><polygon points="497.5,182.41 310.56,182.41 310.56,177.41 497.5,177.41" data-component="partition" data-part-id="section-backs-cabinet-part-9" fill="#c3c3bf" fill-opacity="1" stroke="#55594f" stroke-width="0.9"/><polygon points="310.56,520 310.56,20 305.56,20 305.56,520" data-component="body" data-part-id="section-backs-cabinet-part-2" fill="#c3c3bf" fill-opacity="1" stroke="#55594f" stroke-width="0.9"/><polygon points="694.44,492.22 694.44,20 500,20 500,492.22" data-component="section-back" data-part-id="section-backs-cabinet-section-back-main-417e337fb46acded" fill="#bdb7aa" fill-opacity="1" stroke="#55594f" stroke-width="0.9"/><polygon points="500,179.91 500,20 305.56,20 305.56,179.91" data-component="section-back" data-part-id="section-backs-cabinet-section-back-main-a91e6754155757ab" data-section-id="back-right-top" fill="#bdb7aa" fill-opacity="1" stroke="#55594f" stroke-width="0.9"/><g data-label-leaders="true"></g><g fill="none" stroke="#53605b" stroke-width="1"><path d="M694.44,520 L694.44,543"/><path d="M305.56,520 L305.56,543"/><path d="M694.44,548 L305.56,548"/><path d="M690.44,552 L698.44,544"/><path d="M301.56,552 L309.56,544"/></g><g data-callout-index="1" data-callout-page="1" data-label-x="473" data-label-y="538" data-label-width="54" data-label-height="20" data-label-kind="dimension" data-source-anchor-x="500" data-source-anchor-y="548"><title>1.400</title><g data-drawing-label="dimension" data-anchor-x="500" data-anchor-y="548"><rect x="473" y="538" width="54" height="20" fill="white"/><text x="500" y="552" text-anchor="middle" font-size="14" fill="#35433d">1.400</text></g></g><g fill="none" stroke="#53605b" stroke-width="1"><path d="M694.44,520 L729.44,520"/><path d="M694.44,20 L729.44,20"/><path d="M724.44,520 L724.44,20"/><path d="M720.44,524 L728.44,516"/><path d="M720.44,24 L728.44,16"/></g><g data-callout-index="2" data-callout-page="1" data-label-x="714.44" data-label-y="243" data-label-width="20" data-label-height="54" data-label-kind="dimension" data-source-anchor-x="724.44" data-source-anchor-y="270"><title>1.800</title><g data-drawing-label="dimension" data-anchor-x="724.44" data-anchor-y="270"><rect x="697.44" y="260" width="54" height="20" fill="white" transform="rotate(-90 724.44 270)"/><text x="724.44" y="274" text-anchor="middle" font-size="14" fill="#35433d" transform="rotate(-90 724.44 270)">1.800</text></g></g></g><path d="M60,741 H1060" stroke="#c3cec6"/><text x="60" y="764" font-size="14" fill="#617268">Ön panelsiz gövde: 1.400 × 1.800 × 620 mm</text><text x="1060" y="764" text-anchor="end" font-size="14" fill="#617268">Ölçek ≈ 1:14 %100 baskıda · A4</text><text data-reading-note="not-to-scale" x="60" y="713" font-size="14" fill="#46554b">Çizim üzerinden ölçmeyin. Yazılı ölçüleri kullanın.</text><text x="60" y="733" font-size="14" fill="#46554b">Ölçüler nominaldir. Üretim toleranslarını atölyeyle belirleyin.</text></g></svg>