<svg xmlns="http://www.w3.org/2000/svg" data-i18n="off" lang="ru" width="297mm" height="210mm" viewBox="0 0 1120 792" role="img" aria-label="Шкаф с ящиками в середине: Вид сзади"><title>Шкаф с ящиками в середине — Вид сзади</title><rect width="1120" height="792" fill="white"/><g font-family="Arial, sans-serif"><text x="60" y="44" font-size="20" font-weight="600" fill="#233c34">Шкаф с ящиками в середине</text><text x="60" y="67" font-size="12" fill="#617268">Вид сзади · Все размеры в миллиметрах</text><path d="M60,83 H1060" stroke="#c3cec6"/><g transform="translate(60,90)"><polygon points="507.64,195.35 507.64,160.44 506.11,160.44 506.11,195.35" data-component="door-handle" data-section-id="section-top" data-door-opening="left" data-front-index="1" fill="#57534b" fill-opacity="1" stroke="#55594f" stroke-width="0.9"/><polygon points="494.11,195.35 494.11,160.44 492.58,160.44 492.58,195.35" data-component="door-handle" data-section-id="section-top" data-door-opening="right" data-front-index="2" fill="#57534b" fill-opacity="1" stroke="#55594f" stroke-width="0.9"/><polygon points="517.45,301.33 517.45,299.81 482.55,299.81 482.55,301.33" data-component="drawer-handle" data-section-id="section-middle" fill="#57534b" fill-opacity="1" stroke="#55594f" stroke-width="0.9"/><polygon points="517.45,355.66 517.45,354.13 482.55,354.13 482.55,355.66" data-component="drawer-handle" data-section-id="section-middle" fill="#57534b" fill-opacity="1" stroke="#55594f" stroke-width="0.9"/><polygon points="507.64,474.7 507.64,439.79 506.11,439.79 506.11,474.7" data-component="door-handle" data-section-id="section-bottom" data-door-opening="left" data-front-index="1" fill="#57534b" fill-opacity="1" stroke="#55594f" stroke-width="0.9"/><polygon points="494.11,474.7 494.11,439.79 492.58,439.79 492.58,474.7" data-component="door-handle" data-section-id="section-bottom" data-door-opening="right" data-front-index="2" fill="#57534b" fill-opacity="1" stroke="#55594f" stroke-width="0.9"/><polygon points="630.47,282.04 630.47,80.44 500.22,80.44 500.22,282.04" data-component="front" data-section-id="section-top" data-door-opening="left" data-front-index="1" fill="#997855" fill-opacity="1" stroke="#55594f" stroke-width="0.9"/><polygon points="630.47,537.75 630.47,391.13 500.22,391.13 500.22,537.75" data-component="front" data-section-id="section-bottom" data-door-opening="left" data-front-index="1" fill="#997855" fill-opacity="1" stroke="#55594f" stroke-width="0.9"/><polygon points="499.78,282.04 499.78,80.44 369.53,80.44 369.53,282.04" data-component="front" data-section-id="section-top" data-door-opening="right" data-front-index="2" fill="#997855" fill-opacity="1" stroke="#55594f" stroke-width="0.9"/><polygon points="630.47,336.36 630.47,282.47 369.53,282.47 369.53,336.36" data-component="front" data-section-id="section-middle" fill="#997855" fill-opacity="1" stroke="#55594f" stroke-width="0.9"/><polygon points="630.47,390.69 630.47,336.8 369.53,336.8 369.53,390.69" data-component="front" data-section-id="section-middle" fill="#997855" fill-opacity="1" stroke="#55594f" stroke-width="0.9"/><polygon points="499.78,537.75 499.78,391.13 369.53,391.13 369.53,537.75" data-component="front" data-section-id="section-bottom" data-door-opening="right" data-front-index="2" fill="#997855" fill-opacity="1" stroke="#55594f" stroke-width="0.9"/><polygon points="620.22,330.25 620.22,286.84 379.78,286.84 379.78,330.25" data-component="drawer-box" data-part-id="cabinet-1-part-14" data-section-id="section-middle" fill="#c3c3bf" fill-opacity="1" stroke="#55594f" stroke-width="0.9"/><polygon points="620.22,384.58 620.22,341.16 379.78,341.16 379.78,384.58" data-component="drawer-box" data-part-id="cabinet-1-part-20" data-section-id="section-middle" fill="#c3c3bf" fill-opacity="1" stroke="#55594f" stroke-width="0.9"/><polygon points="626.98,560 626.98,540.36 373.02,540.36 373.02,560" data-component="plinth" data-part-id="cabinet-1-part-8" data-section-id="section-bottom" fill="#c3c3bf" fill-opacity="1" stroke="#55594f" stroke-width="0.9"/><polygon points="624.15,330.25 624.15,286.84 620.22,286.84 620.22,330.25" data-component="drawer-box" data-part-id="cabinet-1-part-12" data-section-id="section-middle" fill="#c3c3bf" fill-opacity="1" stroke="#55594f" stroke-width="0.9"/><polygon points="624.15,384.58 624.15,341.16 620.22,341.16 620.22,384.58" data-component="drawer-box" data-part-id="cabinet-1-part-18" data-section-id="section-middle" fill="#c3c3bf" fill-opacity="1" stroke="#55594f" stroke-width="0.9"/><polygon points="620.22,330.25 620.22,286.84 379.78,286.84 379.78,330.25" data-component="drawer-box" data-part-id="cabinet-1-part-15" data-section-id="section-middle" fill="#c3c3bf" fill-opacity="1" stroke="#55594f" stroke-width="0.9"/><polygon points="624.15,332 375.85,332 375.85,330.25 624.15,330.25" data-component="drawer-box" data-part-id="cabinet-1-part-16" data-section-id="section-middle" fill="#c3c3bf" fill-opacity="1" stroke="#55594f" stroke-width="0.9"/><polygon points="620.22,384.58 620.22,341.16 379.78,341.16 379.78,384.58" data-component="drawer-box" data-part-id="cabinet-1-part-21" data-section-id="section-middle" fill="#c3c3bf" fill-opacity="1" stroke="#55594f" stroke-width="0.9"/><polygon points="624.15,386.33 375.85,386.33 375.85,384.58 624.15,384.58" data-component="drawer-box" data-part-id="cabinet-1-part-22" data-section-id="section-middle" fill="#c3c3bf" fill-opacity="1" stroke="#55594f" stroke-width="0.9"/><polygon points="379.78,330.25 379.78,286.84 375.85,286.84 375.85,330.25" data-component="drawer-box" data-part-id="cabinet-1-part-13" data-section-id="section-middle" fill="#c3c3bf" fill-opacity="1" stroke="#55594f" stroke-width="0.9"/><polygon points="379.78,384.58 379.78,341.16 375.85,341.16 375.85,384.58" data-component="drawer-box" data-part-id="cabinet-1-part-19" data-section-id="section-middle" fill="#c3c3bf" fill-opacity="1" stroke="#55594f" stroke-width="0.9"/><polygon points="630.91,560 630.91,80 626.98,80 626.98,560" data-component="body" data-part-id="cabinet-1-part-1" fill="#c3c3bf" fill-opacity="1" stroke="#55594f" stroke-width="0.9"/><polygon points="626.98,83.93 373.02,83.93 373.02,80 626.98,80" data-component="body" data-part-id="cabinet-1-part-3" fill="#c3c3bf" fill-opacity="1" stroke="#55594f" stroke-width="0.9"/><polygon points="626.98,538.18 373.02,538.18 373.02,534.25 626.98,534.25" data-component="bottom" data-part-id="cabinet-1-part-4" data-section-id="section-bottom" fill="#c3c3bf" fill-opacity="1" stroke="#55594f" stroke-width="0.9"/><polygon points="626.98,284.22 373.02,284.22 373.02,280.29 626.98,280.29" data-component="partition" data-part-id="cabinet-1-part-6" fill="#c3c3bf" fill-opacity="1" stroke="#55594f" stroke-width="0.9"/><polygon points="626.98,392.87 373.02,392.87 373.02,388.95 626.98,388.95" data-component="partition" data-part-id="cabinet-1-part-7" fill="#c3c3bf" fill-opacity="1" stroke="#55594f" stroke-width="0.9"/><polygon points="373.02,560 373.02,80 369.09,80 369.09,560" data-component="body" data-part-id="cabinet-1-part-2" fill="#c3c3bf" fill-opacity="1" stroke="#55594f" stroke-width="0.9"/><polygon points="630.91,538.18 630.91,80 369.09,80 369.09,538.18" data-component="back" data-part-id="cabinet-1-part-5" fill="#bdb7aa" fill-opacity="1" stroke="#55594f" stroke-width="0.9"/><g fill="none" stroke="#53605b" stroke-width="1"><path d="M630.91,560 L630.91,583"/><path d="M369.09,560 L369.09,583"/><path d="M630.91,588 L369.09,588"/><path d="M626.91,592 L634.91,584"/><path d="M365.09,592 L373.09,584"/></g><rect x="475.5" y="578" width="49" height="20" fill="white"/><text x="500" y="592" text-anchor="middle" font-size="12" fill="#35433d">1 200</text><g fill="none" stroke="#53605b" stroke-width="1"><path d="M630.91,560 L665.91,560"/><path d="M630.91,80 L665.91,80"/><path d="M660.91,560 L660.91,80"/><path d="M656.91,564 L664.91,556"/><path d="M656.91,84 L664.91,76"/></g><rect x="636.41" y="310" width="49" height="20" fill="white"/><text x="660.91" y="324" text-anchor="middle" font-size="12" fill="#35433d">2 200</text></g><path d="M60,741 H1060" stroke="#c3cec6"/><text x="60" y="764" font-size="11" fill="#617268">Корпус без фасада: 1 200 × 2 200 × 620 мм</text><text x="1060" y="764" text-anchor="end" font-size="11" fill="#617268">Масштаб ≈ 1:17 при печати 100% · A4</text></g></svg>