<svg xmlns="http://www.w3.org/2000/svg" data-i18n="off" lang="ru" width="297mm" height="210mm" viewBox="0 0 1120 792" role="img" aria-label="Шкаф с ящиками в середине: Вид спереди"><title>Шкаф с ящиками в середине — Вид спереди</title><rect width="1120" height="792" fill="white"/><g font-family="Arial, sans-serif"><text x="60" y="44" font-size="20" font-weight="600" fill="#233c34">Шкаф с ящиками в середине</text><text x="60" y="67" font-size="12" fill="#617268">Вид спереди · Все размеры в миллиметрах · F = размеры фасада; внешние цепочки = проёмы</text><path d="M60,83 H1060" stroke="#c3cec6"/><g transform="translate(60,90)"><polygon points="380,520 620,520 620,100 380,100" data-component="back" data-part-id="cabinet-1-part-5" fill="#ded6c7" fill-opacity="1" stroke="#55594f" stroke-width="0.9"/><polygon points="389.8,329.4 610.2,329.4 610.2,289.6 389.8,289.6" data-component="drawer-box" data-part-id="cabinet-1-part-15" data-section-id="section-middle" fill="#e4e4e0" fill-opacity="1" stroke="#55594f" stroke-width="0.9"/><polygon points="389.8,379.2 610.2,379.2 610.2,339.4 389.8,339.4" data-component="drawer-box" data-part-id="cabinet-1-part-21" data-section-id="section-middle" fill="#e4e4e0" fill-opacity="1" stroke="#55594f" stroke-width="0.9"/><polygon points="383.6,540 616.4,540 616.4,522 383.6,522" data-component="plinth" data-part-id="cabinet-1-part-8" data-section-id="section-bottom" fill="#e4e4e0" fill-opacity="1" stroke="#55594f" stroke-width="0.9"/><polygon points="380,540 383.6,540 383.6,100 380,100" data-component="body" data-part-id="cabinet-1-part-1" fill="#e4e4e0" fill-opacity="1" stroke="#55594f" stroke-width="0.9"/><polygon points="616.4,540 620,540 620,100 616.4,100" data-component="body" data-part-id="cabinet-1-part-2" fill="#e4e4e0" fill-opacity="1" stroke="#55594f" stroke-width="0.9"/><polygon points="616.4,103.6 383.6,103.6 383.6,100 616.4,100" data-component="body" data-part-id="cabinet-1-part-3" fill="#e4e4e0" fill-opacity="1" stroke="#55594f" stroke-width="0.9"/><polygon points="616.4,520 383.6,520 383.6,516.4 616.4,516.4" data-component="bottom" data-part-id="cabinet-1-part-4" data-section-id="section-bottom" fill="#e4e4e0" fill-opacity="1" stroke="#55594f" stroke-width="0.9"/><polygon points="616.4,287.2 383.6,287.2 383.6,283.6 616.4,283.6" data-component="partition" data-part-id="cabinet-1-part-6" fill="#e4e4e0" fill-opacity="1" stroke="#55594f" stroke-width="0.9"/><polygon points="616.4,386.8 383.6,386.8 383.6,383.2 616.4,383.2" data-component="partition" data-part-id="cabinet-1-part-7" fill="#e4e4e0" fill-opacity="1" stroke="#55594f" stroke-width="0.9"/><polygon points="386.2,329.4 389.8,329.4 389.8,289.6 386.2,289.6" data-component="drawer-box" data-part-id="cabinet-1-part-12" data-section-id="section-middle" fill="#e4e4e0" fill-opacity="1" stroke="#55594f" stroke-width="0.9"/><polygon points="610.2,329.4 613.8,329.4 613.8,289.6 610.2,289.6" data-component="drawer-box" data-part-id="cabinet-1-part-13" data-section-id="section-middle" fill="#e4e4e0" fill-opacity="1" stroke="#55594f" stroke-width="0.9"/><polygon points="389.8,329.4 610.2,329.4 610.2,289.6 389.8,289.6" data-component="drawer-box" data-part-id="cabinet-1-part-14" data-section-id="section-middle" fill="#e4e4e0" fill-opacity="1" stroke="#55594f" stroke-width="0.9"/><polygon points="613.8,331 386.2,331 386.2,329.4 613.8,329.4" data-component="drawer-box" data-part-id="cabinet-1-part-16" data-section-id="section-middle" fill="#e4e4e0" fill-opacity="1" stroke="#55594f" stroke-width="0.9"/><polygon points="386.2,379.2 389.8,379.2 389.8,339.4 386.2,339.4" data-component="drawer-box" data-part-id="cabinet-1-part-18" data-section-id="section-middle" fill="#e4e4e0" fill-opacity="1" stroke="#55594f" stroke-width="0.9"/><polygon points="610.2,379.2 613.8,379.2 613.8,339.4 610.2,339.4" data-component="drawer-box" data-part-id="cabinet-1-part-19" data-section-id="section-middle" fill="#e4e4e0" fill-opacity="1" stroke="#55594f" stroke-width="0.9"/><polygon points="389.8,379.2 610.2,379.2 610.2,339.4 389.8,339.4" data-component="drawer-box" data-part-id="cabinet-1-part-20" data-section-id="section-middle" fill="#e4e4e0" fill-opacity="1" stroke="#55594f" stroke-width="0.9"/><polygon points="613.8,380.8 386.2,380.8 386.2,379.2 613.8,379.2" data-component="drawer-box" data-part-id="cabinet-1-part-22" data-section-id="section-middle" fill="#e4e4e0" fill-opacity="1" stroke="#55594f" stroke-width="0.9"/><polygon points="380.4,285.2 499.8,285.2 499.8,100.4 380.4,100.4" data-component="front" data-section-id="section-top" data-door-opening="left" data-front-index="1" fill="#b48c64" fill-opacity="1" stroke="#55594f" stroke-width="0.9"/><polygon points="500.2,285.2 619.6,285.2 619.6,100.4 500.2,100.4" data-component="front" data-section-id="section-top" data-door-opening="right" data-front-index="2" fill="#b48c64" fill-opacity="1" stroke="#55594f" stroke-width="0.9"/><polygon points="380.4,335 619.6,335 619.6,285.6 380.4,285.6" data-component="front" data-section-id="section-middle" fill="#b48c64" fill-opacity="1" stroke="#55594f" stroke-width="0.9"/><polygon points="380.4,384.8 619.6,384.8 619.6,335.4 380.4,335.4" data-component="front" data-section-id="section-middle" fill="#b48c64" fill-opacity="1" stroke="#55594f" stroke-width="0.9"/><polygon points="380.4,519.6 499.8,519.6 499.8,385.2 380.4,385.2" data-component="front" data-section-id="section-bottom" data-door-opening="left" data-front-index="1" fill="#b48c64" fill-opacity="1" stroke="#55594f" stroke-width="0.9"/><polygon points="500.2,519.6 619.6,519.6 619.6,385.2 500.2,385.2" data-component="front" data-section-id="section-bottom" data-door-opening="right" data-front-index="2" fill="#b48c64" fill-opacity="1" stroke="#55594f" stroke-width="0.9"/><polygon points="493,205.74 494.4,205.74 494.4,173.74 493,173.74" data-component="door-handle" data-section-id="section-top" data-door-opening="left" data-front-index="1" fill="#666157" fill-opacity="1" stroke="#55594f" stroke-width="0.9"/><polygon points="505.4,205.74 506.8,205.74 506.8,173.74 505.4,173.74" data-component="door-handle" data-section-id="section-top" data-door-opening="right" data-front-index="2" fill="#666157" fill-opacity="1" stroke="#55594f" stroke-width="0.9"/><polygon points="484,302.89 516,302.89 516,301.49 484,301.49" data-component="drawer-handle" data-section-id="section-middle" fill="#666157" fill-opacity="1" stroke="#55594f" stroke-width="0.9"/><polygon points="484,352.69 516,352.69 516,351.29 484,351.29" data-component="drawer-handle" data-section-id="section-middle" fill="#666157" fill-opacity="1" stroke="#55594f" stroke-width="0.9"/><polygon points="493,461.81 494.4,461.81 494.4,429.81 493,429.81" data-component="door-handle" data-section-id="section-bottom" data-door-opening="left" data-front-index="1" fill="#666157" fill-opacity="1" stroke="#55594f" stroke-width="0.9"/><polygon points="505.4,461.81 506.8,461.81 506.8,429.81 505.4,429.81" data-component="door-handle" data-section-id="section-bottom" data-door-opening="right" data-front-index="2" fill="#666157" fill-opacity="1" stroke="#55594f" stroke-width="0.9"/><g data-opening-symbol="true" data-door-opening="left" data-front-index="1" data-section-id="section-top"><title>Петли слева</title><polyline points="490.25,111.49 387.56,192.8 490.25,274.11" fill="none" stroke="#52736a" stroke-width=".9" stroke-dasharray="6 4" opacity=".72"/><path d="M387.56,257.48 L387.56,233.46" fill="none" stroke="#52736a" stroke-width="1.8"/><path d="M387.56,152.14 L387.56,128.12" fill="none" stroke="#52736a" stroke-width="1.8"/></g><g data-opening-symbol="true" data-door-opening="right" data-front-index="2" data-section-id="section-top"><title>Петли справа</title><polyline points="509.75,111.49 612.44,192.8 509.75,274.11" fill="none" stroke="#52736a" stroke-width=".9" stroke-dasharray="6 4" opacity=".72"/><path d="M612.44,257.48 L612.44,233.46" fill="none" stroke="#52736a" stroke-width="1.8"/><path d="M612.44,152.14 L612.44,128.12" fill="none" stroke="#52736a" stroke-width="1.8"/></g><g data-opening-symbol="true" data-door-opening="left" data-front-index="1" data-section-id="section-bottom"><title>Петли слева</title><polyline points="490.25,393.26 387.56,452.4 490.25,511.54" fill="none" stroke="#52736a" stroke-width=".9" stroke-dasharray="6 4" opacity=".72"/><path d="M387.56,499.44 L387.56,481.97" fill="none" stroke="#52736a" stroke-width="1.8"/><path d="M387.56,422.83 L387.56,405.36" fill="none" stroke="#52736a" stroke-width="1.8"/></g><g data-opening-symbol="true" data-door-opening="right" data-front-index="2" data-section-id="section-bottom"><title>Петли справа</title><polyline points="509.75,393.26 612.44,452.4 509.75,511.54" fill="none" stroke="#52736a" stroke-width=".9" stroke-dasharray="6 4" opacity=".72"/><path d="M612.44,499.44 L612.44,481.97" fill="none" stroke="#52736a" stroke-width="1.8"/><path d="M612.44,422.83 L612.44,405.36" fill="none" stroke="#52736a" stroke-width="1.8"/></g><g><rect x="401.69" y="176.62" width="76.82" height="32.36923076923077" rx="3" fill="white" fill-opacity=".92"/><text x="440.1" y="192.8" text-anchor="middle" font-size="9.184615384615386" fill="#334a40">F1 · дверь</text><text x="440.1" y="204.98" text-anchor="middle" font-size="9.184615384615386" fill="#334a40">597 × 924 мм</text></g><g><rect x="521.49" y="176.62" width="76.82" height="32.36923076923077" rx="3" fill="white" fill-opacity=".92"/><text x="559.9" y="192.8" text-anchor="middle" font-size="9.184615384615386" fill="#334a40">F2 · дверь</text><text x="559.9" y="204.98" text-anchor="middle" font-size="9.184615384615386" fill="#334a40">597 × 924 мм</text></g><g><rect x="445.12" y="291.3" width="109.76" height="38" rx="3" fill="white" fill-opacity=".92"/><text x="500" y="310.3" text-anchor="middle" font-size="12" fill="#334a40">F3 · ящик</text><text x="500" y="325.3" text-anchor="middle" font-size="12" fill="#334a40">1 196 × 247 мм</text></g><g><rect x="445.12" y="341.1" width="109.76" height="38" rx="3" fill="white" fill-opacity=".92"/><text x="500" y="360.1" text-anchor="middle" font-size="12" fill="#334a40">F4 · ящик</text><text x="500" y="375.1" text-anchor="middle" font-size="12" fill="#334a40">1 196 × 247 мм</text></g><g><rect x="401.69" y="436.22" width="76.82" height="32.36923076923077" rx="3" fill="white" fill-opacity=".92"/><text x="440.1" y="452.4" text-anchor="middle" font-size="9.184615384615386" fill="#334a40">F5 · дверь</text><text x="440.1" y="464.58" text-anchor="middle" font-size="9.184615384615386" fill="#334a40">597 × 672 мм</text></g><g><rect x="521.49" y="436.22" width="76.82" height="32.36923076923077" rx="3" fill="white" fill-opacity=".92"/><text x="559.9" y="452.4" text-anchor="middle" font-size="9.184615384615386" fill="#334a40">F6 · дверь</text><text x="559.9" y="464.58" text-anchor="middle" font-size="9.184615384615386" fill="#334a40">597 × 672 мм</text></g><g data-section-axis="section-top" data-axis-bottom-mm="1273" data-axis-top-mm="2191" data-axis-height-mm="918"><g fill="none" stroke="#53605b" stroke-width="1"><path d="M620,285.4 L673,285.4"/><path d="M620,101.8 L673,101.8"/><path d="M668,285.4 L668,101.8"/><path d="M664,289.4 L672,281.4"/><path d="M664,105.8 L672,97.8"/></g><rect x="636.5" y="183.6" width="63" height="20" fill="white"/><text x="668" y="197.6" text-anchor="middle" font-size="12" fill="#35433d">S1 A918</text></g><g data-section-axis="section-middle" data-axis-bottom-mm="775" data-axis-top-mm="1273" data-axis-height-mm="498"><g fill="none" stroke="#53605b" stroke-width="1"><path d="M620,385 L673,385"/><path d="M620,285.4 L673,285.4"/><path d="M668,385 L668,285.4"/><path d="M664,389 L672,381"/><path d="M664,289.4 L672,281.4"/></g><rect x="636.5" y="325.2" width="63" height="20" fill="white"/><text x="668" y="339.2" text-anchor="middle" font-size="12" fill="#35433d">S2 A498</text></g><g data-section-axis="section-bottom" data-axis-bottom-mm="109" data-axis-top-mm="775" data-axis-height-mm="666"><g fill="none" stroke="#53605b" stroke-width="1"><path d="M620,518.2 L673,518.2"/><path d="M620,385 L673,385"/><path d="M668,518.2 L668,385"/><path d="M664,522.2 L672,514.2"/><path d="M664,389 L672,381"/></g><rect x="636.5" y="441.6" width="63" height="20" fill="white"/><text x="668" y="455.6" text-anchor="middle" font-size="12" fill="#35433d">S3 A666</text></g><text x="992" y="18" text-anchor="end" font-family="Arial, sans-serif" font-size="10" fill="#586b63">A · Между осями крепления, мм</text><g fill="none" stroke="#53605b" stroke-width="1"><path d="M383.6,540 L383.6,598"/><path d="M616.4,540 L616.4,598"/><path d="M383.6,593 L616.4,593"/><path d="M379.6,597 L387.6,589"/><path d="M612.4,597 L620.4,589"/></g><rect x="475.5" y="583" width="49" height="20" fill="white"/><text x="500" y="597" text-anchor="middle" font-size="12" fill="#35433d">1 164</text><g fill="none" stroke="#53605b" stroke-width="1"><path d="M380,516.4 L332,516.4"/><path d="M380,386.8 L332,386.8"/><path d="M327,516.4 L327,386.8"/><path d="M323,520.4 L331,512.4"/><path d="M323,390.8 L331,382.8"/></g><rect x="309.5" y="441.6" width="35" height="20" fill="white"/><text x="327" y="455.6" text-anchor="middle" font-size="12" fill="#35433d">648</text><g fill="none" stroke="#53605b" stroke-width="1"><path d="M380,383.2 L332,383.2"/><path d="M380,287.2 L332,287.2"/><path d="M327,383.2 L327,287.2"/><path d="M323,387.2 L331,379.2"/><path d="M323,291.2 L331,283.2"/></g><rect x="309.5" y="325.2" width="35" height="20" fill="white"/><text x="327" y="339.2" text-anchor="middle" font-size="12" fill="#35433d">480</text><g fill="none" stroke="#53605b" stroke-width="1"><path d="M380,283.6 L332,283.6"/><path d="M380,103.6 L332,103.6"/><path d="M327,283.6 L327,103.6"/><path d="M323,287.6 L331,279.6"/><path d="M323,107.6 L331,99.6"/></g><rect x="309.5" y="183.6" width="35" height="20" fill="white"/><text x="327" y="197.6" text-anchor="middle" font-size="12" fill="#35433d">900</text><g fill="none" stroke="#53605b" stroke-width="1"><path d="M380,540 L380,573"/><path d="M620,540 L620,573"/><path d="M380,568 L620,568"/><path d="M376,572 L384,564"/><path d="M616,572 L624,564"/></g><rect x="475.5" y="558" width="49" height="20" fill="white"/><text x="500" y="572" text-anchor="middle" font-size="12" fill="#35433d">1 200</text><g fill="none" stroke="#53605b" stroke-width="1"><path d="M380,540 L355,540"/><path d="M380,100 L355,100"/><path d="M350,540 L350,100"/><path d="M346,544 L354,536"/><path d="M346,104 L354,96"/></g><rect x="325.5" y="310" width="49" height="20" fill="white"/><text x="350" y="324" text-anchor="middle" font-size="12" fill="#35433d">2 200</text></g><path d="M60,741 H1060" stroke="#c3cec6"/><text x="60" y="764" font-size="11" fill="#617268">Корпус без фасада: 1 200 × 2 200 × 620 мм</text><text x="1060" y="764" text-anchor="end" font-size="11" fill="#617268">Масштаб ≈ 1:19 при печати 100% · A4</text></g></svg>