<svg xmlns="http://www.w3.org/2000/svg" data-i18n="off" lang="ru" width="297mm" height="210mm" viewBox="0 0 1120 792" role="img" aria-label="Шкаф с ящиками в середине: Вид справа"><title>Шкаф с ящиками в середине — Вид справа</title><rect width="1120" height="792" fill="white"/><g font-family="Arial, sans-serif"><text x="60" y="44" font-size="20" font-weight="600" fill="#233c34">Шкаф с ящиками в середине</text><text x="60" y="67" font-size="12" fill="#617268">Вид справа · Все размеры в миллиметрах</text><path d="M60,83 H1060" stroke="#c3cec6"/><g transform="translate(60,90)"><polygon points="568.95,560 568.95,80 434.33,80 434.33,560" data-component="body" data-part-id="cabinet-1-part-1" fill="#c3c3bf" fill-opacity="1" stroke="#55594f" stroke-width="0.9"/><polygon points="564.58,330.25 564.58,286.84 438.69,286.84 438.69,330.25" data-component="drawer-box" data-section-id="section-middle" fill="#c3c3bf" fill-opacity="1" stroke="#55594f" stroke-width="0.9"/><polygon points="564.58,384.58 564.58,341.16 438.69,341.16 438.69,384.58" data-component="drawer-box" data-section-id="section-middle" fill="#c3c3bf" fill-opacity="1" stroke="#55594f" stroke-width="0.9"/><polygon points="428.87,195.35 428.87,160.44 426.91,160.44 426.91,195.35" data-component="door-handle" data-section-id="section-top" data-door-opening="left" data-front-index="1" fill="#57534b" fill-opacity="1" stroke="#55594f" stroke-width="0.9"/><polygon points="428.87,474.7 428.87,439.79 426.91,439.79 426.91,474.7" data-component="door-handle" data-section-id="section-bottom" data-door-opening="left" data-front-index="1" fill="#57534b" fill-opacity="1" stroke="#55594f" stroke-width="0.9"/><polygon points="434.33,282.04 434.33,80.44 430.4,80.44 430.4,282.04" data-component="front" data-section-id="section-top" data-door-opening="left" data-front-index="1" fill="#997855" fill-opacity="1" stroke="#55594f" stroke-width="0.9"/><polygon points="434.33,537.75 434.33,391.13 430.4,391.13 430.4,537.75" data-component="front" data-section-id="section-bottom" data-door-opening="left" data-front-index="1" fill="#997855" fill-opacity="1" stroke="#55594f" stroke-width="0.9"/><polygon points="428.87,195.35 428.87,160.44 426.91,160.44 426.91,195.35" data-component="door-handle" data-section-id="section-top" data-door-opening="right" data-front-index="2" fill="#57534b" fill-opacity="1" stroke="#55594f" stroke-width="0.9"/><polygon points="428.87,474.7 428.87,439.79 426.91,439.79 426.91,474.7" data-component="door-handle" data-section-id="section-bottom" data-door-opening="right" data-front-index="2" fill="#57534b" fill-opacity="1" stroke="#55594f" stroke-width="0.9"/><polygon points="428.87,301.33 428.87,299.81 426.91,299.81 426.91,301.33" data-component="drawer-handle" data-section-id="section-middle" fill="#57534b" fill-opacity="1" stroke="#55594f" stroke-width="0.9"/><polygon points="428.87,355.66 428.87,354.13 426.91,354.13 426.91,355.66" data-component="drawer-handle" data-section-id="section-middle" fill="#57534b" fill-opacity="1" stroke="#55594f" stroke-width="0.9"/><polygon points="564.58,330.25 564.58,286.84 560.65,286.84 560.65,330.25" data-component="drawer-box" data-section-id="section-middle" fill="#c3c3bf" fill-opacity="1" stroke="#55594f" stroke-width="0.9"/><polygon points="442.62,330.25 442.62,286.84 438.69,286.84 438.69,330.25" data-component="drawer-box" data-section-id="section-middle" fill="#c3c3bf" fill-opacity="1" stroke="#55594f" stroke-width="0.9"/><polygon points="564.58,384.58 564.58,341.16 560.65,341.16 560.65,384.58" data-component="drawer-box" data-section-id="section-middle" fill="#c3c3bf" fill-opacity="1" stroke="#55594f" stroke-width="0.9"/><polygon points="442.62,384.58 442.62,341.16 438.69,341.16 438.69,384.58" data-component="drawer-box" data-section-id="section-middle" fill="#c3c3bf" fill-opacity="1" stroke="#55594f" stroke-width="0.9"/><polygon points="564.58,332 564.58,330.25 438.69,330.25 438.69,332" data-component="drawer-box" data-section-id="section-middle" fill="#c3c3bf" fill-opacity="1" stroke="#55594f" stroke-width="0.9"/><polygon points="564.58,330.25 564.58,286.84 438.69,286.84 438.69,330.25" data-component="drawer-box" data-section-id="section-middle" fill="#c3c3bf" fill-opacity="1" stroke="#55594f" stroke-width="0.9"/><polygon points="564.58,386.33 564.58,384.58 438.69,384.58 438.69,386.33" data-component="drawer-box" data-section-id="section-middle" fill="#c3c3bf" fill-opacity="1" stroke="#55594f" stroke-width="0.9"/><polygon points="564.58,384.58 564.58,341.16 438.69,341.16 438.69,384.58" data-component="drawer-box" data-section-id="section-middle" fill="#c3c3bf" fill-opacity="1" stroke="#55594f" stroke-width="0.9"/><polygon points="568.95,83.93 434.33,83.93 434.33,80 568.95,80" data-component="body" data-part-id="cabinet-1-part-3" fill="#c3c3bf" fill-opacity="1" stroke="#55594f" stroke-width="0.9"/><polygon points="568.95,538.18 434.33,538.18 434.33,534.25 568.95,534.25" data-component="bottom" data-part-id="cabinet-1-part-4" data-section-id="section-bottom" fill="#c3c3bf" fill-opacity="1" stroke="#55594f" stroke-width="0.9"/><polygon points="568.95,284.22 434.33,284.22 434.33,280.29 568.95,280.29" data-component="partition" data-part-id="cabinet-1-part-6" fill="#c3c3bf" fill-opacity="1" stroke="#55594f" stroke-width="0.9"/><polygon points="568.95,392.87 434.33,392.87 434.33,388.95 568.95,388.95" data-component="partition" data-part-id="cabinet-1-part-7" fill="#c3c3bf" fill-opacity="1" stroke="#55594f" stroke-width="0.9"/><polygon points="448.51,560 448.51,540.36 444.58,540.36 444.58,560" data-component="plinth" data-part-id="cabinet-1-part-8" data-section-id="section-bottom" fill="#c3c3bf" fill-opacity="1" stroke="#55594f" stroke-width="0.9"/><polygon points="434.33,282.04 434.33,80.44 430.4,80.44 430.4,282.04" data-component="front" data-section-id="section-top" data-door-opening="right" data-front-index="2" fill="#997855" fill-opacity="1" stroke="#55594f" stroke-width="0.9"/><polygon points="434.33,336.36 434.33,282.47 430.4,282.47 430.4,336.36" data-component="front" data-section-id="section-middle" fill="#997855" fill-opacity="1" stroke="#55594f" stroke-width="0.9"/><polygon points="434.33,390.69 434.33,336.8 430.4,336.8 430.4,390.69" data-component="front" data-section-id="section-middle" fill="#997855" fill-opacity="1" stroke="#55594f" stroke-width="0.9"/><polygon points="434.33,537.75 434.33,391.13 430.4,391.13 430.4,537.75" data-component="front" data-section-id="section-bottom" data-door-opening="right" data-front-index="2" fill="#997855" fill-opacity="1" stroke="#55594f" stroke-width="0.9"/><polygon points="568.95,560 568.95,80 434.33,80 434.33,560" data-component="body" data-part-id="cabinet-1-part-2" fill="#c3c3bf" fill-opacity="1" stroke="#55594f" stroke-width="0.9"/><polygon points="569.6,538.18 569.6,80 568.95,80 568.95,538.18" data-component="back" data-part-id="cabinet-1-part-5" fill="#bdb7aa" fill-opacity="1" stroke="#55594f" stroke-width="0.9"/><g fill="none" stroke="#53605b" stroke-width="1"><path d="M569.6,560 L569.6,583"/><path d="M434.33,560 L434.33,583"/><path d="M569.6,588 L434.33,588"/><path d="M565.6,592 L573.6,584"/><path d="M430.33,592 L438.33,584"/></g><rect x="484.46" y="578" width="35" height="20" fill="white"/><text x="501.96" y="592" text-anchor="middle" font-size="12" fill="#35433d">620</text><g fill="none" stroke="#53605b" stroke-width="1"><path d="M569.6,560 L602.6,560"/><path d="M569.6,80 L602.6,80"/><path d="M597.6,560 L597.6,80"/><path d="M593.6,564 L601.6,556"/><path d="M593.6,84 L601.6,76"/></g><rect x="573.1" y="310" width="49" height="20" fill="white"/><text x="597.6" y="324" text-anchor="middle" font-size="12" fill="#35433d">2 200</text></g><path d="M60,741 H1060" stroke="#c3cec6"/><text x="60" y="764" font-size="11" fill="#617268">Корпус без фасада: 1 200 × 2 200 × 620 мм</text><text x="1060" y="764" text-anchor="end" font-size="11" fill="#617268">Масштаб ≈ 1:17 при печати 100% · A4</text></g></svg>