0
SECTION
2
HEADER
9
$ACADVER
1
AC1015
9
$INSUNITS
70
4
9
$MEASUREMENT
70
1
9
$LUNITS
70
2
9
$LUPREC
70
3
9
$EXTMIN
10
0
20
0
30
0
9
$EXTMAX
10
11000
20
2890
30
0
0
ENDSEC
0
SECTION
2
TABLES
0
TABLE
2
LAYER
5
10
100
AcDbSymbolTable
70
76
0
LAYER
5
11
100
AcDbSymbolTableRecord
100
AcDbLayerTableRecord
2
S001_STOCK
70
0
62
8
6
CONTINUOUS
0
LAYER
5
12
100
AcDbSymbolTableRecord
100
AcDbLayerTableRecord
2
S001_LABELS
70
0
62
2
6
CONTINUOUS
0
LAYER
5
13
100
AcDbSymbolTableRecord
100
AcDbLayerTableRecord
2
S001_C001_TRIM
70
0
62
1
6
CONTINUOUS
0
LAYER
5
14
100
AcDbSymbolTableRecord
100
AcDbLayerTableRecord
2
S001_C002_TRIM
70
0
62
1
6
CONTINUOUS
0
LAYER
5
15
100
AcDbSymbolTableRecord
100
AcDbLayerTableRecord
2
S001_C003_TRIM
70
0
62
1
6
CONTINUOUS
0
LAYER
5
16
100
AcDbSymbolTableRecord
100
AcDbLayerTableRecord
2
S001_C004_TRIM
70
0
62
1
6
CONTINUOUS
0
LAYER
5
17
100
AcDbSymbolTableRecord
100
AcDbLayerTableRecord
2
S001_C005_CUT
70
0
62
1
6
CONTINUOUS
0
LAYER
5
18
100
AcDbSymbolTableRecord
100
AcDbLayerTableRecord
2
S001_C006_CUT
70
0
62
1
6
CONTINUOUS
0
LAYER
5
19
100
AcDbSymbolTableRecord
100
AcDbLayerTableRecord
2
S001_C007_CUT
70
0
62
1
6
CONTINUOUS
0
LAYER
5
1A
100
AcDbSymbolTableRecord
100
AcDbLayerTableRecord
2
S001_C008_CUT
70
0
62
1
6
CONTINUOUS
0
LAYER
5
1B
100
AcDbSymbolTableRecord
100
AcDbLayerTableRecord
2
S001_C009_CUT
70
0
62
1
6
CONTINUOUS
0
LAYER
5
1C
100
AcDbSymbolTableRecord
100
AcDbLayerTableRecord
2
S001_C010_CUT
70
0
62
1
6
CONTINUOUS
0
LAYER
5
1D
100
AcDbSymbolTableRecord
100
AcDbLayerTableRecord
2
S001_C011_CUT
70
0
62
1
6
CONTINUOUS
0
LAYER
5
1E
100
AcDbSymbolTableRecord
100
AcDbLayerTableRecord
2
S001_C012_CUT
70
0
62
1
6
CONTINUOUS
0
LAYER
5
1F
100
AcDbSymbolTableRecord
100
AcDbLayerTableRecord
2
S001_C013_CUT
70
0
62
1
6
CONTINUOUS
0
LAYER
5
20
100
AcDbSymbolTableRecord
100
AcDbLayerTableRecord
2
S001_C014_CUT
70
0
62
1
6
CONTINUOUS
0
LAYER
5
21
100
AcDbSymbolTableRecord
100
AcDbLayerTableRecord
2
S001_C015_CUT
70
0
62
1
6
CONTINUOUS
0
LAYER
5
22
100
AcDbSymbolTableRecord
100
AcDbLayerTableRecord
2
S001_C016_CUT
70
0
62
1
6
CONTINUOUS
0
LAYER
5
23
100
AcDbSymbolTableRecord
100
AcDbLayerTableRecord
2
S001_C017_CUT
70
0
62
1
6
CONTINUOUS
0
LAYER
5
24
100
AcDbSymbolTableRecord
100
AcDbLayerTableRecord
2
S001_C018_CUT
70
0
62
1
6
CONTINUOUS
0
LAYER
5
25
100
AcDbSymbolTableRecord
100
AcDbLayerTableRecord
2
S001_C019_CUT
70
0
62
1
6
CONTINUOUS
0
LAYER
5
26
100
AcDbSymbolTableRecord
100
AcDbLayerTableRecord
2
S001_C020_CUT
70
0
62
1
6
CONTINUOUS
0
LAYER
5
27
100
AcDbSymbolTableRecord
100
AcDbLayerTableRecord
2
S001_C021_CUT
70
0
62
1
6
CONTINUOUS
0
LAYER
5
28
100
AcDbSymbolTableRecord
100
AcDbLayerTableRecord
2
S001_C022_CUT
70
0
62
1
6
CONTINUOUS
0
LAYER
5
29
100
AcDbSymbolTableRecord
100
AcDbLayerTableRecord
2
S001_C023_CUT
70
0
62
1
6
CONTINUOUS
0
LAYER
5
2A
100
AcDbSymbolTableRecord
100
AcDbLayerTableRecord
2
S001_C024_CUT
70
0
62
1
6
CONTINUOUS
0
LAYER
5
2B
100
AcDbSymbolTableRecord
100
AcDbLayerTableRecord
2
S002_STOCK
70
0
62
8
6
CONTINUOUS
0
LAYER
5
2C
100
AcDbSymbolTableRecord
100
AcDbLayerTableRecord
2
S002_LABELS
70
0
62
2
6
CONTINUOUS
0
LAYER
5
2D
100
AcDbSymbolTableRecord
100
AcDbLayerTableRecord
2
S002_C001_TRIM
70
0
62
1
6
CONTINUOUS
0
LAYER
5
2E
100
AcDbSymbolTableRecord
100
AcDbLayerTableRecord
2
S002_C002_TRIM
70
0
62
1
6
CONTINUOUS
0
LAYER
5
2F
100
AcDbSymbolTableRecord
100
AcDbLayerTableRecord
2
S002_C003_TRIM
70
0
62
1
6
CONTINUOUS
0
LAYER
5
30
100
AcDbSymbolTableRecord
100
AcDbLayerTableRecord
2
S002_C004_TRIM
70
0
62
1
6
CONTINUOUS
0
LAYER
5
31
100
AcDbSymbolTableRecord
100
AcDbLayerTableRecord
2
S002_C005_CUT
70
0
62
1
6
CONTINUOUS
0
LAYER
5
32
100
AcDbSymbolTableRecord
100
AcDbLayerTableRecord
2
S002_C006_CUT
70
0
62
1
6
CONTINUOUS
0
LAYER
5
33
100
AcDbSymbolTableRecord
100
AcDbLayerTableRecord
2
S002_C007_CUT
70
0
62
1
6
CONTINUOUS
0
LAYER
5
34
100
AcDbSymbolTableRecord
100
AcDbLayerTableRecord
2
S002_C008_CUT
70
0
62
1
6
CONTINUOUS
0
LAYER
5
35
100
AcDbSymbolTableRecord
100
AcDbLayerTableRecord
2
S002_C009_CUT
70
0
62
1
6
CONTINUOUS
0
LAYER
5
36
100
AcDbSymbolTableRecord
100
AcDbLayerTableRecord
2
S002_C010_CUT
70
0
62
1
6
CONTINUOUS
0
LAYER
5
37
100
AcDbSymbolTableRecord
100
AcDbLayerTableRecord
2
S002_C011_CUT
70
0
62
1
6
CONTINUOUS
0
LAYER
5
38
100
AcDbSymbolTableRecord
100
AcDbLayerTableRecord
2
S002_C012_CUT
70
0
62
1
6
CONTINUOUS
0
LAYER
5
39
100
AcDbSymbolTableRecord
100
AcDbLayerTableRecord
2
S002_C013_CUT
70
0
62
1
6
CONTINUOUS
0
LAYER
5
3A
100
AcDbSymbolTableRecord
100
AcDbLayerTableRecord
2
S002_C014_CUT
70
0
62
1
6
CONTINUOUS
0
LAYER
5
3B
100
AcDbSymbolTableRecord
100
AcDbLayerTableRecord
2
S003_STOCK
70
0
62
8
6
CONTINUOUS
0
LAYER
5
3C
100
AcDbSymbolTableRecord
100
AcDbLayerTableRecord
2
S003_LABELS
70
0
62
2
6
CONTINUOUS
0
LAYER
5
3D
100
AcDbSymbolTableRecord
100
AcDbLayerTableRecord
2
S003_C001_TRIM
70
0
62
1
6
CONTINUOUS
0
LAYER
5
3E
100
AcDbSymbolTableRecord
100
AcDbLayerTableRecord
2
S003_C002_TRIM
70
0
62
1
6
CONTINUOUS
0
LAYER
5
3F
100
AcDbSymbolTableRecord
100
AcDbLayerTableRecord
2
S003_C003_TRIM
70
0
62
1
6
CONTINUOUS
0
LAYER
5
40
100
AcDbSymbolTableRecord
100
AcDbLayerTableRecord
2
S003_C004_TRIM
70
0
62
1
6
CONTINUOUS
0
LAYER
5
41
100
AcDbSymbolTableRecord
100
AcDbLayerTableRecord
2
S003_C005_CUT
70
0
62
1
6
CONTINUOUS
0
LAYER
5
42
100
AcDbSymbolTableRecord
100
AcDbLayerTableRecord
2
S003_C006_CUT
70
0
62
1
6
CONTINUOUS
0
LAYER
5
43
100
AcDbSymbolTableRecord
100
AcDbLayerTableRecord
2
S004_STOCK
70
0
62
8
6
CONTINUOUS
0
LAYER
5
44
100
AcDbSymbolTableRecord
100
AcDbLayerTableRecord
2
S004_LABELS
70
0
62
2
6
CONTINUOUS
0
LAYER
5
45
100
AcDbSymbolTableRecord
100
AcDbLayerTableRecord
2
S004_C001_TRIM
70
0
62
1
6
CONTINUOUS
0
LAYER
5
46
100
AcDbSymbolTableRecord
100
AcDbLayerTableRecord
2
S004_C002_TRIM
70
0
62
1
6
CONTINUOUS
0
LAYER
5
47
100
AcDbSymbolTableRecord
100
AcDbLayerTableRecord
2
S004_C003_TRIM
70
0
62
1
6
CONTINUOUS
0
LAYER
5
48
100
AcDbSymbolTableRecord
100
AcDbLayerTableRecord
2
S004_C004_TRIM
70
0
62
1
6
CONTINUOUS
0
LAYER
5
49
100
AcDbSymbolTableRecord
100
AcDbLayerTableRecord
2
S004_C005_CUT
70
0
62
1
6
CONTINUOUS
0
LAYER
5
4A
100
AcDbSymbolTableRecord
100
AcDbLayerTableRecord
2
S004_C006_CUT
70
0
62
1
6
CONTINUOUS
0
LAYER
5
4B
100
AcDbSymbolTableRecord
100
AcDbLayerTableRecord
2
S004_C007_CUT
70
0
62
1
6
CONTINUOUS
0
LAYER
5
4C
100
AcDbSymbolTableRecord
100
AcDbLayerTableRecord
2
S004_C008_CUT
70
0
62
1
6
CONTINUOUS
0
LAYER
5
4D
100
AcDbSymbolTableRecord
100
AcDbLayerTableRecord
2
S004_C009_CUT
70
0
62
1
6
CONTINUOUS
0
LAYER
5
4E
100
AcDbSymbolTableRecord
100
AcDbLayerTableRecord
2
S004_C010_CUT
70
0
62
1
6
CONTINUOUS
0
LAYER
5
4F
100
AcDbSymbolTableRecord
100
AcDbLayerTableRecord
2
S004_C011_CUT
70
0
62
1
6
CONTINUOUS
0
LAYER
5
50
100
AcDbSymbolTableRecord
100
AcDbLayerTableRecord
2
S004_C012_CUT
70
0
62
1
6
CONTINUOUS
0
LAYER
5
51
100
AcDbSymbolTableRecord
100
AcDbLayerTableRecord
2
S004_C013_CUT
70
0
62
1
6
CONTINUOUS
0
LAYER
5
52
100
AcDbSymbolTableRecord
100
AcDbLayerTableRecord
2
S004_C014_CUT
70
0
62
1
6
CONTINUOUS
0
LAYER
5
53
100
AcDbSymbolTableRecord
100
AcDbLayerTableRecord
2
S005_STOCK
70
0
62
8
6
CONTINUOUS
0
LAYER
5
54
100
AcDbSymbolTableRecord
100
AcDbLayerTableRecord
2
S005_LABELS
70
0
62
2
6
CONTINUOUS
0
LAYER
5
55
100
AcDbSymbolTableRecord
100
AcDbLayerTableRecord
2
S005_C001_TRIM
70
0
62
1
6
CONTINUOUS
0
LAYER
5
56
100
AcDbSymbolTableRecord
100
AcDbLayerTableRecord
2
S005_C002_TRIM
70
0
62
1
6
CONTINUOUS
0
LAYER
5
57
100
AcDbSymbolTableRecord
100
AcDbLayerTableRecord
2
S005_C003_TRIM
70
0
62
1
6
CONTINUOUS
0
LAYER
5
58
100
AcDbSymbolTableRecord
100
AcDbLayerTableRecord
2
S005_C004_TRIM
70
0
62
1
6
CONTINUOUS
0
LAYER
5
59
100
AcDbSymbolTableRecord
100
AcDbLayerTableRecord
2
S005_C005_CUT
70
0
62
1
6
CONTINUOUS
0
LAYER
5
5A
100
AcDbSymbolTableRecord
100
AcDbLayerTableRecord
2
S005_C006_CUT
70
0
62
1
6
CONTINUOUS
0
LAYER
5
5B
100
AcDbSymbolTableRecord
100
AcDbLayerTableRecord
2
S005_C007_CUT
70
0
62
1
6
CONTINUOUS
0
LAYER
5
5C
100
AcDbSymbolTableRecord
100
AcDbLayerTableRecord
2
S005_C008_CUT
70
0
62
1
6
CONTINUOUS
0
ENDTAB
0
ENDSEC
0
SECTION
2
ENTITIES
999
SAW PASS CENTERLINES; MM; FOLLOW CSV SEQUENCE AND PARENT REGIONS; KERF SEPARATE; NOT CNC GCODE; STOCK AND LABELS ARE REFERENCES
999
S001 SHEET_JSON {"id":"sheet-1","materialId":"mdf-white","thickness":18,"width":2100,"height":2800,"margin":10,"kerf":3,"offsetX":0}
0
LWPOLYLINE
5
5D
100
AcDbEntity
8
S001_STOCK
100
AcDbPolyline
90
4
70
1
10
0
20
0
10
2100
20
0
10
2100
20
2800
10
0
20
2800
0
TEXT
5
5E
100
AcDbEntity
8
S001_LABELS
100
AcDbText
10
1050
20
2835
30
0
40
20
1
S001 2100x2800 T18 K3
50
0
7
STANDARD
72
1
11
1050
21
2835
31
0
100
AcDbText
73
2
0
TEXT
5
5F
100
AcDbEntity
8
S001_LABELS
100
AcDbText
10
1050
20
2865
30
0
40
20
1
Y\U+0131ld\U+0131z MDFLAM \U+00B7 Beyaz VT_068 \U+00B7 18 mm / VT_068 / 18 mm
50
0
7
STANDARD
72
1
11
1050
21
2865
31
0
100
AcDbText
73
2
999
S001 C001 CUT_JSON {"id":"sheet-1-C0001","cutId":"sheet-1-C0001","sequence":1,"axis":"x","x1":8.5,"y1":0,"x2":8.5,"y2":2800,"kerf":3,"kerfBand":{"x":7,"y":0,"width":3,"height":2800},"actualKerfBand":{"x":7,"y":0,"width":3,"height":2800},"parentRegionId":"sheet-1-R0001","resultRegionIds":["sheet-1-R0002","sheet-1-R0003"],"kind":"trim","stage":"trim-left","retainedEdge":"right","parentX":0,"parentY":0,"parentWidth":2100,"parentHeight":2800,"bladeCenterOffsetMm":8.5,"retainedSizeMm":2090}
0
LINE
5
60
100
AcDbEntity
8
S001_C001_TRIM
100
AcDbLine
10
8.5
20
2800
30
0
11
8.5
21
0
31
0
0
TEXT
5
61
100
AcDbEntity
8
S001_LABELS
100
AcDbText
10
23.5
20
1400
30
0
40
12
1
C001
50
0
7
STANDARD
72
1
11
23.5
21
1400
31
0
100
AcDbText
73
2
999
S001 C002 CUT_JSON {"id":"sheet-1-C0002","cutId":"sheet-1-C0002","sequence":2,"axis":"x","x1":2091.5,"y1":0,"x2":2091.5,"y2":2800,"kerf":3,"kerfBand":{"x":2090,"y":0,"width":3,"height":2800},"actualKerfBand":{"x":2090,"y":0,"width":3,"height":2800},"parentRegionId":"sheet-1-R0003","resultRegionIds":["sheet-1-R0004","sheet-1-R0005"],"kind":"trim","stage":"trim-right","retainedEdge":"left","parentX":10,"parentY":0,"parentWidth":2090,"parentHeight":2800,"bladeCenterOffsetMm":2081.5,"retainedSizeMm":2080}
0
LINE
5
62
100
AcDbEntity
8
S001_C002_TRIM
100
AcDbLine
10
2091.5
20
2800
30
0
11
2091.5
21
0
31
0
0
TEXT
5
63
100
AcDbEntity
8
S001_LABELS
100
AcDbText
10
2106.5
20
1400
30
0
40
12
1
C002
50
0
7
STANDARD
72
1
11
2106.5
21
1400
31
0
100
AcDbText
73
2
999
S001 C003 CUT_JSON {"id":"sheet-1-C0003","cutId":"sheet-1-C0003","sequence":3,"axis":"y","x1":10,"y1":8.5,"x2":2090,"y2":8.5,"kerf":3,"kerfBand":{"x":10,"y":7,"width":2080,"height":3},"actualKerfBand":{"x":10,"y":7,"width":2080,"height":3},"parentRegionId":"sheet-1-R0004","resultRegionIds":["sheet-1-R0006","sheet-1-R0007"],"kind":"trim","stage":"trim-top","retainedEdge":"bottom","parentX":10,"parentY":0,"parentWidth":2080,"parentHeight":2800,"bladeCenterOffsetMm":8.5,"retainedSizeMm":2790}
0
LINE
5
64
100
AcDbEntity
8
S001_C003_TRIM
100
AcDbLine
10
10
20
2791.5
30
0
11
2090
21
2791.5
31
0
0
TEXT
5
65
100
AcDbEntity
8
S001_LABELS
100
AcDbText
10
1050
20
2806.5
30
0
40
12
1
C003
50
0
7
STANDARD
72
1
11
1050
21
2806.5
31
0
100
AcDbText
73
2
999
S001 C004 CUT_JSON {"id":"sheet-1-C0004","cutId":"sheet-1-C0004","sequence":4,"axis":"y","x1":10,"y1":2791.5,"x2":2090,"y2":2791.5,"kerf":3,"kerfBand":{"x":10,"y":2790,"width":2080,"height":3},"actualKerfBand":{"x":10,"y":2790,"width":2080,"height":3},"parentRegionId":"sheet-1-R0007","resultRegionIds":["sheet-1-R0008","sheet-1-R0009"],"kind":"trim","stage":"trim-bottom","retainedEdge":"top","parentX":10,"parentY":10,"parentWidth":2080,"parentHeight":2790,"bladeCenterOffsetMm":2781.5,"retainedSizeMm":2780}
0
LINE
5
66
100
AcDbEntity
8
S001_C004_TRIM
100
AcDbLine
10
10
20
8.5
30
0
11
2090
21
8.5
31
0
0
TEXT
5
67
100
AcDbEntity
8
S001_LABELS
100
AcDbText
10
1050
20
23.5
30
0
40
12
1
C004
50
0
7
STANDARD
72
1
11
1050
21
23.5
31
0
100
AcDbText
73
2
999
S001 C005 CUT_JSON {"id":"sheet-1-C0005","cutId":"sheet-1-C0005","sequence":5,"axis":"x","x1":627.5,"y1":10,"x2":627.5,"y2":2790,"kerf":3,"kerfBand":{"x":626,"y":10,"width":3,"height":2780},"actualKerfBand":{"x":626,"y":10,"width":3,"height":2780},"parentRegionId":"sheet-1-R0008","resultRegionIds":["sheet-1-R0010","sheet-1-R0011"],"kind":"separate","stage":"separate","retainedEdge":"left","parentX":10,"parentY":10,"parentWidth":2080,"parentHeight":2780,"bladeCenterOffsetMm":617.5,"retainedSizeMm":616}
0
LINE
5
68
100
AcDbEntity
8
S001_C005_CUT
100
AcDbLine
10
627.5
20
2790
30
0
11
627.5
21
10
31
0
0
TEXT
5
69
100
AcDbEntity
8
S001_LABELS
100
AcDbText
10
642.5
20
1400
30
0
40
12
1
C005
50
0
7
STANDARD
72
1
11
642.5
21
1400
31
0
100
AcDbText
73
2
999
S001 C006 CUT_JSON {"id":"sheet-1-C0006","cutId":"sheet-1-C0006","sequence":6,"axis":"y","x1":10,"y1":2210.5,"x2":626,"y2":2210.5,"kerf":3,"kerfBand":{"x":10,"y":2209,"width":616,"height":3},"actualKerfBand":{"x":10,"y":2209,"width":616,"height":3},"parentRegionId":"sheet-1-R0010","resultRegionIds":["sheet-1-R0012","sheet-1-R0013"],"kind":"separate","stage":"separate","retainedEdge":"top","parentX":10,"parentY":10,"parentWidth":616,"parentHeight":2780,"bladeCenterOffsetMm":2200.5,"retainedSizeMm":2199}
0
LINE
5
6A
100
AcDbEntity
8
S001_C006_CUT
100
AcDbLine
10
10
20
589.5
30
0
11
626
21
589.5
31
0
0
TEXT
5
6B
100
AcDbEntity
8
S001_LABELS
100
AcDbText
10
318
20
604.5
30
0
40
12
1
C006
50
0
7
STANDARD
72
1
11
318
21
604.5
31
0
100
AcDbText
73
2
999
S001 C007 CUT_JSON {"id":"sheet-1-C0007","cutId":"sheet-1-C0007","sequence":7,"axis":"x","x1":1246.5,"y1":10,"x2":1246.5,"y2":2790,"kerf":3,"kerfBand":{"x":1245,"y":10,"width":3,"height":2780},"actualKerfBand":{"x":1245,"y":10,"width":3,"height":2780},"parentRegionId":"sheet-1-R0011","resultRegionIds":["sheet-1-R0014","sheet-1-R0015"],"kind":"separate","stage":"separate","retainedEdge":"left","parentX":629,"parentY":10,"parentWidth":1461,"parentHeight":2780,"bladeCenterOffsetMm":617.5,"retainedSizeMm":616}
0
LINE
5
6C
100
AcDbEntity
8
S001_C007_CUT
100
AcDbLine
10
1246.5
20
2790
30
0
11
1246.5
21
10
31
0
0
TEXT
5
6D
100
AcDbEntity
8
S001_LABELS
100
AcDbText
10
1261.5
20
1400
30
0
40
12
1
C007
50
0
7
STANDARD
72
1
11
1261.5
21
1400
31
0
100
AcDbText
73
2
999
S001 C008 CUT_JSON {"id":"sheet-1-C0008","cutId":"sheet-1-C0008","sequence":8,"axis":"y","x1":629,"y1":2210.5,"x2":1245,"y2":2210.5,"kerf":3,"kerfBand":{"x":629,"y":2209,"width":616,"height":3},"actualKerfBand":{"x":629,"y":2209,"width":616,"height":3},"parentRegionId":"sheet-1-R0014","resultRegionIds":["sheet-1-R0016","sheet-1-R0017"],"kind":"separate","stage":"separate","retainedEdge":"top","parentX":629,"parentY":10,"parentWidth":616,"parentHeight":2780,"bladeCenterOffsetMm":2200.5,"retainedSizeMm":2199}
0
LINE
5
6E
100
AcDbEntity
8
S001_C008_CUT
100
AcDbLine
10
629
20
589.5
30
0
11
1245
21
589.5
31
0
0
TEXT
5
6F
100
AcDbEntity
8
S001_LABELS
100
AcDbText
10
937
20
604.5
30
0
40
12
1
C008
50
0
7
STANDARD
72
1
11
937
21
604.5
31
0
100
AcDbText
73
2
999
S001 C009 CUT_JSON {"id":"sheet-1-C0009","cutId":"sheet-1-C0009","sequence":9,"axis":"y","x1":1248,"y1":1175.5,"x2":2090,"y2":1175.5,"kerf":3,"kerfBand":{"x":1248,"y":1174,"width":842,"height":3},"actualKerfBand":{"x":1248,"y":1174,"width":842,"height":3},"parentRegionId":"sheet-1-R0015","resultRegionIds":["sheet-1-R0018","sheet-1-R0019"],"kind":"separate","stage":"separate","retainedEdge":"top","parentX":1248,"parentY":10,"parentWidth":842,"parentHeight":2780,"bladeCenterOffsetMm":1165.5,"retainedSizeMm":1164}
0
LINE
5
70
100
AcDbEntity
8
S001_C009_CUT
100
AcDbLine
10
1248
20
1624.5
30
0
11
2090
21
1624.5
31
0
0
TEXT
5
71
100
AcDbEntity
8
S001_LABELS
100
AcDbText
10
1669
20
1639.5
30
0
40
12
1
C009
50
0
7
STANDARD
72
1
11
1669
21
1639.5
31
0
100
AcDbText
73
2
999
S001 C010 CUT_JSON {"id":"sheet-1-C0010","cutId":"sheet-1-C0010","sequence":10,"axis":"x","x1":1865.5,"y1":10,"x2":1865.5,"y2":1174,"kerf":3,"kerfBand":{"x":1864,"y":10,"width":3,"height":1164},"actualKerfBand":{"x":1864,"y":10,"width":3,"height":1164},"parentRegionId":"sheet-1-R0018","resultRegionIds":["sheet-1-R0020","sheet-1-R0021"],"kind":"separate","stage":"separate","retainedEdge":"left","parentX":1248,"parentY":10,"parentWidth":842,"parentHeight":1164,"bladeCenterOffsetMm":617.5,"retainedSizeMm":616}
0
LINE
5
72
100
AcDbEntity
8
S001_C010_CUT
100
AcDbLine
10
1865.5
20
2790
30
0
11
1865.5
21
1626
31
0
0
TEXT
5
73
100
AcDbEntity
8
S001_LABELS
100
AcDbText
10
1880.5
20
2208
30
0
40
12
1
C010
50
0
7
STANDARD
72
1
11
1880.5
21
2208
31
0
100
AcDbText
73
2
999
S001 C011 CUT_JSON {"id":"sheet-1-C0011","cutId":"sheet-1-C0011","sequence":11,"axis":"y","x1":1248,"y1":2342.5,"x2":2090,"y2":2342.5,"kerf":3,"kerfBand":{"x":1248,"y":2341,"width":842,"height":3},"actualKerfBand":{"x":1248,"y":2341,"width":842,"height":3},"parentRegionId":"sheet-1-R0019","resultRegionIds":["sheet-1-R0022","sheet-1-R0023"],"kind":"separate","stage":"separate","retainedEdge":"top","parentX":1248,"parentY":1177,"parentWidth":842,"parentHeight":1613,"bladeCenterOffsetMm":1165.5,"retainedSizeMm":1164}
0
LINE
5
74
100
AcDbEntity
8
S001_C011_CUT
100
AcDbLine
10
1248
20
457.5
30
0
11
2090
21
457.5
31
0
0
TEXT
5
75
100
AcDbEntity
8
S001_LABELS
100
AcDbText
10
1669
20
472.5
30
0
40
12
1
C011
50
0
7
STANDARD
72
1
11
1669
21
472.5
31
0
100
AcDbText
73
2
999
S001 C012 CUT_JSON {"id":"sheet-1-C0012","cutId":"sheet-1-C0012","sequence":12,"axis":"x","x1":1865.5,"y1":1177,"x2":1865.5,"y2":2341,"kerf":3,"kerfBand":{"x":1864,"y":1177,"width":3,"height":1164},"actualKerfBand":{"x":1864,"y":1177,"width":3,"height":1164},"parentRegionId":"sheet-1-R0022","resultRegionIds":["sheet-1-R0024","sheet-1-R0025"],"kind":"separate","stage":"separate","retainedEdge":"left","parentX":1248,"parentY":1177,"parentWidth":842,"parentHeight":1164,"bladeCenterOffsetMm":617.5,"retainedSizeMm":616}
0
LINE
5
76
100
AcDbEntity
8
S001_C012_CUT
100
AcDbLine
10
1865.5
20
1623
30
0
11
1865.5
21
459
31
0
0
TEXT
5
77
100
AcDbEntity
8
S001_LABELS
100
AcDbText
10
1880.5
20
1041
30
0
40
12
1
C012
50
0
7
STANDARD
72
1
11
1880.5
21
1041
31
0
100
AcDbText
73
2
999
S001 C013 CUT_JSON {"id":"sheet-1-C0013","cutId":"sheet-1-C0013","sequence":13,"axis":"x","x1":2066.5,"y1":10,"x2":2066.5,"y2":1174,"kerf":3,"kerfBand":{"x":2065,"y":10,"width":3,"height":1164},"actualKerfBand":{"x":2065,"y":10,"width":3,"height":1164},"parentRegionId":"sheet-1-R0021","resultRegionIds":["sheet-1-R0026","sheet-1-R0027"],"kind":"separate","stage":"separate","retainedEdge":"left","parentX":1867,"parentY":10,"parentWidth":223,"parentHeight":1164,"bladeCenterOffsetMm":199.5,"retainedSizeMm":198}
0
LINE
5
78
100
AcDbEntity
8
S001_C013_CUT
100
AcDbLine
10
2066.5
20
2790
30
0
11
2066.5
21
1626
31
0
0
TEXT
5
79
100
AcDbEntity
8
S001_LABELS
100
AcDbText
10
2081.5
20
2208
30
0
40
12
1
C013
50
0
7
STANDARD
72
1
11
2081.5
21
2208
31
0
100
AcDbText
73
2
999
S001 C014 CUT_JSON {"id":"sheet-1-C0014","cutId":"sheet-1-C0014","sequence":14,"axis":"y","x1":1867,"y1":1113.5,"x2":2065,"y2":1113.5,"kerf":3,"kerfBand":{"x":1867,"y":1112,"width":198,"height":3},"actualKerfBand":{"x":1867,"y":1112,"width":198,"height":3},"parentRegionId":"sheet-1-R0026","resultRegionIds":["sheet-1-R0028","sheet-1-R0029"],"kind":"separate","stage":"separate","retainedEdge":"top","parentX":1867,"parentY":10,"parentWidth":198,"parentHeight":1164,"bladeCenterOffsetMm":1103.5,"retainedSizeMm":1102}
0
LINE
5
7A
100
AcDbEntity
8
S001_C014_CUT
100
AcDbLine
10
1867
20
1686.5
30
0
11
2065
21
1686.5
31
0
0
TEXT
5
7B
100
AcDbEntity
8
S001_LABELS
100
AcDbText
10
1966
20
1701.5
30
0
40
12
1
C014
50
0
7
STANDARD
72
1
11
1966
21
1701.5
31
0
100
AcDbText
73
2
999
S001 C015 CUT_JSON {"id":"sheet-1-C0015","cutId":"sheet-1-C0015","sequence":15,"axis":"x","x1":2066.5,"y1":1177,"x2":2066.5,"y2":2341,"kerf":3,"kerfBand":{"x":2065,"y":1177,"width":3,"height":1164},"actualKerfBand":{"x":2065,"y":1177,"width":3,"height":1164},"parentRegionId":"sheet-1-R0025","resultRegionIds":["sheet-1-R0030","sheet-1-R0031"],"kind":"separate","stage":"separate","retainedEdge":"left","parentX":1867,"parentY":1177,"parentWidth":223,"parentHeight":1164,"bladeCenterOffsetMm":199.5,"retainedSizeMm":198}
0
LINE
5
7C
100
AcDbEntity
8
S001_C015_CUT
100
AcDbLine
10
2066.5
20
1623
30
0
11
2066.5
21
459
31
0
0
TEXT
5
7D
100
AcDbEntity
8
S001_LABELS
100
AcDbText
10
2081.5
20
1041
30
0
40
12
1
C015
50
0
7
STANDARD
72
1
11
2081.5
21
1041
31
0
100
AcDbText
73
2
999
S001 C016 CUT_JSON {"id":"sheet-1-C0016","cutId":"sheet-1-C0016","sequence":16,"axis":"y","x1":1867,"y1":2280.5,"x2":2065,"y2":2280.5,"kerf":3,"kerfBand":{"x":1867,"y":2279,"width":198,"height":3},"actualKerfBand":{"x":1867,"y":2279,"width":198,"height":3},"parentRegionId":"sheet-1-R0030","resultRegionIds":["sheet-1-R0032","sheet-1-R0033"],"kind":"separate","stage":"separate","retainedEdge":"top","parentX":1867,"parentY":1177,"parentWidth":198,"parentHeight":1164,"bladeCenterOffsetMm":1103.5,"retainedSizeMm":1102}
0
LINE
5
7E
100
AcDbEntity
8
S001_C016_CUT
100
AcDbLine
10
1867
20
519.5
30
0
11
2065
21
519.5
31
0
0
TEXT
5
7F
100
AcDbEntity
8
S001_LABELS
100
AcDbText
10
1966
20
534.5
30
0
40
12
1
C016
50
0
7
STANDARD
72
1
11
1966
21
534.5
31
0
100
AcDbText
73
2
999
S001 C017 CUT_JSON {"id":"sheet-1-C0017","cutId":"sheet-1-C0017","sequence":17,"axis":"x","x1":209.5,"y1":2212,"x2":209.5,"y2":2790,"kerf":3,"kerfBand":{"x":208,"y":2212,"width":3,"height":578},"actualKerfBand":{"x":208,"y":2212,"width":3,"height":578},"parentRegionId":"sheet-1-R0013","resultRegionIds":["sheet-1-R0034","sheet-1-R0035"],"kind":"separate","stage":"separate","retainedEdge":"left","parentX":10,"parentY":2212,"parentWidth":616,"parentHeight":578,"bladeCenterOffsetMm":199.5,"retainedSizeMm":198}
0
LINE
5
80
100
AcDbEntity
8
S001_C017_CUT
100
AcDbLine
10
209.5
20
588
30
0
11
209.5
21
10
31
0
0
TEXT
5
81
100
AcDbEntity
8
S001_LABELS
100
AcDbText
10
224.5
20
299
30
0
40
12
1
C017
50
0
7
STANDARD
72
1
11
224.5
21
299
31
0
100
AcDbText
73
2
999
S001 C018 CUT_JSON {"id":"sheet-1-C0018","cutId":"sheet-1-C0018","sequence":18,"axis":"y","x1":10,"y1":2790.5,"x2":208,"y2":2790.5,"kerf":3,"kerfBand":{"x":10,"y":2789,"width":198,"height":3},"actualKerfBand":{"x":10,"y":2789,"width":198,"height":1},"parentRegionId":"sheet-1-R0034","resultRegionIds":["sheet-1-R0036"],"kind":"separate","stage":"separate","retainedEdge":"top","parentX":10,"parentY":2212,"parentWidth":198,"parentHeight":578,"bladeCenterOffsetMm":578.5,"retainedSizeMm":577}
0
LINE
5
82
100
AcDbEntity
8
S001_C018_CUT
100
AcDbLine
10
10
20
9.5
30
0
11
208
21
9.5
31
0
0
TEXT
5
83
100
AcDbEntity
8
S001_LABELS
100
AcDbText
10
109
20
24.5
30
0
40
12
1
C018
50
0
7
STANDARD
72
1
11
109
21
24.5
31
0
100
AcDbText
73
2
999
S001 C019 CUT_JSON {"id":"sheet-1-C0019","cutId":"sheet-1-C0019","sequence":19,"axis":"x","x1":410.5,"y1":2212,"x2":410.5,"y2":2790,"kerf":3,"kerfBand":{"x":409,"y":2212,"width":3,"height":578},"actualKerfBand":{"x":409,"y":2212,"width":3,"height":578},"parentRegionId":"sheet-1-R0035","resultRegionIds":["sheet-1-R0037","sheet-1-R0038"],"kind":"separate","stage":"separate","retainedEdge":"left","parentX":211,"parentY":2212,"parentWidth":415,"parentHeight":578,"bladeCenterOffsetMm":199.5,"retainedSizeMm":198}
0
LINE
5
84
100
AcDbEntity
8
S001_C019_CUT
100
AcDbLine
10
410.5
20
588
30
0
11
410.5
21
10
31
0
0
TEXT
5
85
100
AcDbEntity
8
S001_LABELS
100
AcDbText
10
425.5
20
299
30
0
40
12
1
C019
50
0
7
STANDARD
72
1
11
425.5
21
299
31
0
100
AcDbText
73
2
999
S001 C020 CUT_JSON {"id":"sheet-1-C0020","cutId":"sheet-1-C0020","sequence":20,"axis":"y","x1":211,"y1":2790.5,"x2":409,"y2":2790.5,"kerf":3,"kerfBand":{"x":211,"y":2789,"width":198,"height":3},"actualKerfBand":{"x":211,"y":2789,"width":198,"height":1},"parentRegionId":"sheet-1-R0037","resultRegionIds":["sheet-1-R0039"],"kind":"separate","stage":"separate","retainedEdge":"top","parentX":211,"parentY":2212,"parentWidth":198,"parentHeight":578,"bladeCenterOffsetMm":578.5,"retainedSizeMm":577}
0
LINE
5
86
100
AcDbEntity
8
S001_C020_CUT
100
AcDbLine
10
211
20
9.5
30
0
11
409
21
9.5
31
0
0
TEXT
5
87
100
AcDbEntity
8
S001_LABELS
100
AcDbText
10
310
20
24.5
30
0
40
12
1
C020
50
0
7
STANDARD
72
1
11
310
21
24.5
31
0
100
AcDbText
73
2
999
S001 C021 CUT_JSON {"id":"sheet-1-C0021","cutId":"sheet-1-C0021","sequence":21,"axis":"x","x1":611.5,"y1":2212,"x2":611.5,"y2":2790,"kerf":3,"kerfBand":{"x":610,"y":2212,"width":3,"height":578},"actualKerfBand":{"x":610,"y":2212,"width":3,"height":578},"parentRegionId":"sheet-1-R0038","resultRegionIds":["sheet-1-R0040","sheet-1-R0041"],"kind":"separate","stage":"separate","retainedEdge":"left","parentX":412,"parentY":2212,"parentWidth":214,"parentHeight":578,"bladeCenterOffsetMm":199.5,"retainedSizeMm":198}
0
LINE
5
88
100
AcDbEntity
8
S001_C021_CUT
100
AcDbLine
10
611.5
20
588
30
0
11
611.5
21
10
31
0
0
TEXT
5
89
100
AcDbEntity
8
S001_LABELS
100
AcDbText
10
626.5
20
299
30
0
40
12
1
C021
50
0
7
STANDARD
72
1
11
626.5
21
299
31
0
100
AcDbText
73
2
999
S001 C022 CUT_JSON {"id":"sheet-1-C0022","cutId":"sheet-1-C0022","sequence":22,"axis":"y","x1":412,"y1":2790.5,"x2":610,"y2":2790.5,"kerf":3,"kerfBand":{"x":412,"y":2789,"width":198,"height":3},"actualKerfBand":{"x":412,"y":2789,"width":198,"height":1},"parentRegionId":"sheet-1-R0040","resultRegionIds":["sheet-1-R0042"],"kind":"separate","stage":"separate","retainedEdge":"top","parentX":412,"parentY":2212,"parentWidth":198,"parentHeight":578,"bladeCenterOffsetMm":578.5,"retainedSizeMm":577}
0
LINE
5
8A
100
AcDbEntity
8
S001_C022_CUT
100
AcDbLine
10
412
20
9.5
30
0
11
610
21
9.5
31
0
0
TEXT
5
8B
100
AcDbEntity
8
S001_LABELS
100
AcDbText
10
511
20
24.5
30
0
40
12
1
C022
50
0
7
STANDARD
72
1
11
511
21
24.5
31
0
100
AcDbText
73
2
999
S001 C023 CUT_JSON {"id":"sheet-1-C0023","cutId":"sheet-1-C0023","sequence":23,"axis":"x","x1":828.5,"y1":2212,"x2":828.5,"y2":2790,"kerf":3,"kerfBand":{"x":827,"y":2212,"width":3,"height":578},"actualKerfBand":{"x":827,"y":2212,"width":3,"height":578},"parentRegionId":"sheet-1-R0017","resultRegionIds":["sheet-1-R0043","sheet-1-R0044"],"kind":"separate","stage":"separate","retainedEdge":"left","parentX":629,"parentY":2212,"parentWidth":616,"parentHeight":578,"bladeCenterOffsetMm":199.5,"retainedSizeMm":198}
0
LINE
5
8C
100
AcDbEntity
8
S001_C023_CUT
100
AcDbLine
10
828.5
20
588
30
0
11
828.5
21
10
31
0
0
TEXT
5
8D
100
AcDbEntity
8
S001_LABELS
100
AcDbText
10
843.5
20
299
30
0
40
12
1
C023
50
0
7
STANDARD
72
1
11
843.5
21
299
31
0
100
AcDbText
73
2
999
S001 C024 CUT_JSON {"id":"sheet-1-C0024","cutId":"sheet-1-C0024","sequence":24,"axis":"y","x1":629,"y1":2790.5,"x2":827,"y2":2790.5,"kerf":3,"kerfBand":{"x":629,"y":2789,"width":198,"height":3},"actualKerfBand":{"x":629,"y":2789,"width":198,"height":1},"parentRegionId":"sheet-1-R0043","resultRegionIds":["sheet-1-R0045"],"kind":"separate","stage":"separate","retainedEdge":"top","parentX":629,"parentY":2212,"parentWidth":198,"parentHeight":578,"bladeCenterOffsetMm":578.5,"retainedSizeMm":577}
0
LINE
5
8E
100
AcDbEntity
8
S001_C024_CUT
100
AcDbLine
10
629
20
9.5
30
0
11
827
21
9.5
31
0
0
TEXT
5
8F
100
AcDbEntity
8
S001_LABELS
100
AcDbText
10
728
20
24.5
30
0
40
12
1
C024
50
0
7
STANDARD
72
1
11
728
21
24.5
31
0
100
AcDbText
73
2
999
S002 SHEET_JSON {"id":"sheet-2","materialId":"mdf-white","thickness":18,"width":2100,"height":2800,"margin":10,"kerf":3,"offsetX":2200}
0
LWPOLYLINE
5
90
100
AcDbEntity
8
S002_STOCK
100
AcDbPolyline
90
4
70
1
10
2200
20
0
10
4300
20
0
10
4300
20
2800
10
2200
20
2800
0
TEXT
5
91
100
AcDbEntity
8
S002_LABELS
100
AcDbText
10
3250
20
2835
30
0
40
20
1
S002 2100x2800 T18 K3
50
0
7
STANDARD
72
1
11
3250
21
2835
31
0
100
AcDbText
73
2
0
TEXT
5
92
100
AcDbEntity
8
S002_LABELS
100
AcDbText
10
3250
20
2865
30
0
40
20
1
Y\U+0131ld\U+0131z MDFLAM \U+00B7 Beyaz VT_068 \U+00B7 18 mm / VT_068 / 18 mm
50
0
7
STANDARD
72
1
11
3250
21
2865
31
0
100
AcDbText
73
2
999
S002 C001 CUT_JSON {"id":"sheet-2-C0001","cutId":"sheet-2-C0001","sequence":1,"axis":"x","x1":8.5,"y1":0,"x2":8.5,"y2":2800,"kerf":3,"kerfBand":{"x":7,"y":0,"width":3,"height":2800},"actualKerfBand":{"x":7,"y":0,"width":3,"height":2800},"parentRegionId":"sheet-2-R0001","resultRegionIds":["sheet-2-R0002","sheet-2-R0003"],"kind":"trim","stage":"trim-left","retainedEdge":"right","parentX":0,"parentY":0,"parentWidth":2100,"parentHeight":2800,"bladeCenterOffsetMm":8.5,"retainedSizeMm":2090}
0
LINE
5
93
100
AcDbEntity
8
S002_C001_TRIM
100
AcDbLine
10
2208.5
20
2800
30
0
11
2208.5
21
0
31
0
0
TEXT
5
94
100
AcDbEntity
8
S002_LABELS
100
AcDbText
10
2223.5
20
1400
30
0
40
12
1
C001
50
0
7
STANDARD
72
1
11
2223.5
21
1400
31
0
100
AcDbText
73
2
999
S002 C002 CUT_JSON {"id":"sheet-2-C0002","cutId":"sheet-2-C0002","sequence":2,"axis":"x","x1":2091.5,"y1":0,"x2":2091.5,"y2":2800,"kerf":3,"kerfBand":{"x":2090,"y":0,"width":3,"height":2800},"actualKerfBand":{"x":2090,"y":0,"width":3,"height":2800},"parentRegionId":"sheet-2-R0003","resultRegionIds":["sheet-2-R0004","sheet-2-R0005"],"kind":"trim","stage":"trim-right","retainedEdge":"left","parentX":10,"parentY":0,"parentWidth":2090,"parentHeight":2800,"bladeCenterOffsetMm":2081.5,"retainedSizeMm":2080}
0
LINE
5
95
100
AcDbEntity
8
S002_C002_TRIM
100
AcDbLine
10
4291.5
20
2800
30
0
11
4291.5
21
0
31
0
0
TEXT
5
96
100
AcDbEntity
8
S002_LABELS
100
AcDbText
10
4306.5
20
1400
30
0
40
12
1
C002
50
0
7
STANDARD
72
1
11
4306.5
21
1400
31
0
100
AcDbText
73
2
999
S002 C003 CUT_JSON {"id":"sheet-2-C0003","cutId":"sheet-2-C0003","sequence":3,"axis":"y","x1":10,"y1":8.5,"x2":2090,"y2":8.5,"kerf":3,"kerfBand":{"x":10,"y":7,"width":2080,"height":3},"actualKerfBand":{"x":10,"y":7,"width":2080,"height":3},"parentRegionId":"sheet-2-R0004","resultRegionIds":["sheet-2-R0006","sheet-2-R0007"],"kind":"trim","stage":"trim-top","retainedEdge":"bottom","parentX":10,"parentY":0,"parentWidth":2080,"parentHeight":2800,"bladeCenterOffsetMm":8.5,"retainedSizeMm":2790}
0
LINE
5
97
100
AcDbEntity
8
S002_C003_TRIM
100
AcDbLine
10
2210
20
2791.5
30
0
11
4290
21
2791.5
31
0
0
TEXT
5
98
100
AcDbEntity
8
S002_LABELS
100
AcDbText
10
3250
20
2806.5
30
0
40
12
1
C003
50
0
7
STANDARD
72
1
11
3250
21
2806.5
31
0
100
AcDbText
73
2
999
S002 C004 CUT_JSON {"id":"sheet-2-C0004","cutId":"sheet-2-C0004","sequence":4,"axis":"y","x1":10,"y1":2791.5,"x2":2090,"y2":2791.5,"kerf":3,"kerfBand":{"x":10,"y":2790,"width":2080,"height":3},"actualKerfBand":{"x":10,"y":2790,"width":2080,"height":3},"parentRegionId":"sheet-2-R0007","resultRegionIds":["sheet-2-R0008","sheet-2-R0009"],"kind":"trim","stage":"trim-bottom","retainedEdge":"top","parentX":10,"parentY":10,"parentWidth":2080,"parentHeight":2790,"bladeCenterOffsetMm":2781.5,"retainedSizeMm":2780}
0
LINE
5
99
100
AcDbEntity
8
S002_C004_TRIM
100
AcDbLine
10
2210
20
8.5
30
0
11
4290
21
8.5
31
0
0
TEXT
5
9A
100
AcDbEntity
8
S002_LABELS
100
AcDbText
10
3250
20
23.5
30
0
40
12
1
C004
50
0
7
STANDARD
72
1
11
3250
21
23.5
31
0
100
AcDbText
73
2
999
S002 C005 CUT_JSON {"id":"sheet-2-C0005","cutId":"sheet-2-C0005","sequence":5,"axis":"y","x1":10,"y1":627.5,"x2":2090,"y2":627.5,"kerf":3,"kerfBand":{"x":10,"y":626,"width":2080,"height":3},"actualKerfBand":{"x":10,"y":626,"width":2080,"height":3},"parentRegionId":"sheet-2-R0008","resultRegionIds":["sheet-2-R0010","sheet-2-R0011"],"kind":"separate","stage":"separate","retainedEdge":"top","parentX":10,"parentY":10,"parentWidth":2080,"parentHeight":2780,"bladeCenterOffsetMm":617.5,"retainedSizeMm":616}
0
LINE
5
9B
100
AcDbEntity
8
S002_C005_CUT
100
AcDbLine
10
2210
20
2172.5
30
0
11
4290
21
2172.5
31
0
0
TEXT
5
9C
100
AcDbEntity
8
S002_LABELS
100
AcDbText
10
3250
20
2187.5
30
0
40
12
1
C005
50
0
7
STANDARD
72
1
11
3250
21
2187.5
31
0
100
AcDbText
73
2
999
S002 C006 CUT_JSON {"id":"sheet-2-C0006","cutId":"sheet-2-C0006","sequence":6,"axis":"x","x1":1175.5,"y1":10,"x2":1175.5,"y2":626,"kerf":3,"kerfBand":{"x":1174,"y":10,"width":3,"height":616},"actualKerfBand":{"x":1174,"y":10,"width":3,"height":616},"parentRegionId":"sheet-2-R0010","resultRegionIds":["sheet-2-R0012","sheet-2-R0013"],"kind":"separate","stage":"separate","retainedEdge":"left","parentX":10,"parentY":10,"parentWidth":2080,"parentHeight":616,"bladeCenterOffsetMm":1165.5,"retainedSizeMm":1164}
0
LINE
5
9D
100
AcDbEntity
8
S002_C006_CUT
100
AcDbLine
10
3375.5
20
2790
30
0
11
3375.5
21
2174
31
0
0
TEXT
5
9E
100
AcDbEntity
8
S002_LABELS
100
AcDbText
10
3390.5
20
2482
30
0
40
12
1
C006
50
0
7
STANDARD
72
1
11
3390.5
21
2482
31
0
100
AcDbText
73
2
999
S002 C007 CUT_JSON {"id":"sheet-2-C0007","cutId":"sheet-2-C0007","sequence":7,"axis":"y","x1":10,"y1":1246.5,"x2":2090,"y2":1246.5,"kerf":3,"kerfBand":{"x":10,"y":1245,"width":2080,"height":3},"actualKerfBand":{"x":10,"y":1245,"width":2080,"height":3},"parentRegionId":"sheet-2-R0011","resultRegionIds":["sheet-2-R0014","sheet-2-R0015"],"kind":"separate","stage":"separate","retainedEdge":"top","parentX":10,"parentY":629,"parentWidth":2080,"parentHeight":2161,"bladeCenterOffsetMm":617.5,"retainedSizeMm":616}
0
LINE
5
9F
100
AcDbEntity
8
S002_C007_CUT
100
AcDbLine
10
2210
20
1553.5
30
0
11
4290
21
1553.5
31
0
0
TEXT
5
A0
100
AcDbEntity
8
S002_LABELS
100
AcDbText
10
3250
20
1568.5
30
0
40
12
1
C007
50
0
7
STANDARD
72
1
11
3250
21
1568.5
31
0
100
AcDbText
73
2
999
S002 C008 CUT_JSON {"id":"sheet-2-C0008","cutId":"sheet-2-C0008","sequence":8,"axis":"x","x1":1175.5,"y1":629,"x2":1175.5,"y2":1245,"kerf":3,"kerfBand":{"x":1174,"y":629,"width":3,"height":616},"actualKerfBand":{"x":1174,"y":629,"width":3,"height":616},"parentRegionId":"sheet-2-R0014","resultRegionIds":["sheet-2-R0016","sheet-2-R0017"],"kind":"separate","stage":"separate","retainedEdge":"left","parentX":10,"parentY":629,"parentWidth":2080,"parentHeight":616,"bladeCenterOffsetMm":1165.5,"retainedSizeMm":1164}
0
LINE
5
A1
100
AcDbEntity
8
S002_C008_CUT
100
AcDbLine
10
3375.5
20
2171
30
0
11
3375.5
21
1555
31
0
0
TEXT
5
A2
100
AcDbEntity
8
S002_LABELS
100
AcDbText
10
3390.5
20
1863
30
0
40
12
1
C008
50
0
7
STANDARD
72
1
11
3390.5
21
1863
31
0
100
AcDbText
73
2
999
S002 C009 CUT_JSON {"id":"sheet-2-C0009","cutId":"sheet-2-C0009","sequence":9,"axis":"x","x1":209.5,"y1":1248,"x2":209.5,"y2":2790,"kerf":3,"kerfBand":{"x":208,"y":1248,"width":3,"height":1542},"actualKerfBand":{"x":208,"y":1248,"width":3,"height":1542},"parentRegionId":"sheet-2-R0015","resultRegionIds":["sheet-2-R0018","sheet-2-R0019"],"kind":"separate","stage":"separate","retainedEdge":"left","parentX":10,"parentY":1248,"parentWidth":2080,"parentHeight":1542,"bladeCenterOffsetMm":199.5,"retainedSizeMm":198}
0
LINE
5
A3
100
AcDbEntity
8
S002_C009_CUT
100
AcDbLine
10
2409.5
20
1552
30
0
11
2409.5
21
10
31
0
0
TEXT
5
A4
100
AcDbEntity
8
S002_LABELS
100
AcDbText
10
2424.5
20
781
30
0
40
12
1
C009
50
0
7
STANDARD
72
1
11
2424.5
21
781
31
0
100
AcDbText
73
2
999
S002 C010 CUT_JSON {"id":"sheet-2-C0010","cutId":"sheet-2-C0010","sequence":10,"axis":"y","x1":10,"y1":2351.5,"x2":208,"y2":2351.5,"kerf":3,"kerfBand":{"x":10,"y":2350,"width":198,"height":3},"actualKerfBand":{"x":10,"y":2350,"width":198,"height":3},"parentRegionId":"sheet-2-R0018","resultRegionIds":["sheet-2-R0020","sheet-2-R0021"],"kind":"separate","stage":"separate","retainedEdge":"top","parentX":10,"parentY":1248,"parentWidth":198,"parentHeight":1542,"bladeCenterOffsetMm":1103.5,"retainedSizeMm":1102}
0
LINE
5
A5
100
AcDbEntity
8
S002_C010_CUT
100
AcDbLine
10
2210
20
448.5
30
0
11
2408
21
448.5
31
0
0
TEXT
5
A6
100
AcDbEntity
8
S002_LABELS
100
AcDbText
10
2309
20
463.5
30
0
40
12
1
C010
50
0
7
STANDARD
72
1
11
2309
21
463.5
31
0
100
AcDbText
73
2
999
S002 C011 CUT_JSON {"id":"sheet-2-C0011","cutId":"sheet-2-C0011","sequence":11,"axis":"x","x1":410.5,"y1":1248,"x2":410.5,"y2":2790,"kerf":3,"kerfBand":{"x":409,"y":1248,"width":3,"height":1542},"actualKerfBand":{"x":409,"y":1248,"width":3,"height":1542},"parentRegionId":"sheet-2-R0019","resultRegionIds":["sheet-2-R0022","sheet-2-R0023"],"kind":"separate","stage":"separate","retainedEdge":"left","parentX":211,"parentY":1248,"parentWidth":1879,"parentHeight":1542,"bladeCenterOffsetMm":199.5,"retainedSizeMm":198}
0
LINE
5
A7
100
AcDbEntity
8
S002_C011_CUT
100
AcDbLine
10
2610.5
20
1552
30
0
11
2610.5
21
10
31
0
0
TEXT
5
A8
100
AcDbEntity
8
S002_LABELS
100
AcDbText
10
2625.5
20
781
30
0
40
12
1
C011
50
0
7
STANDARD
72
1
11
2625.5
21
781
31
0
100
AcDbText
73
2
999
S002 C012 CUT_JSON {"id":"sheet-2-C0012","cutId":"sheet-2-C0012","sequence":12,"axis":"y","x1":211,"y1":2351.5,"x2":409,"y2":2351.5,"kerf":3,"kerfBand":{"x":211,"y":2350,"width":198,"height":3},"actualKerfBand":{"x":211,"y":2350,"width":198,"height":3},"parentRegionId":"sheet-2-R0022","resultRegionIds":["sheet-2-R0024","sheet-2-R0025"],"kind":"separate","stage":"separate","retainedEdge":"top","parentX":211,"parentY":1248,"parentWidth":198,"parentHeight":1542,"bladeCenterOffsetMm":1103.5,"retainedSizeMm":1102}
0
LINE
5
A9
100
AcDbEntity
8
S002_C012_CUT
100
AcDbLine
10
2411
20
448.5
30
0
11
2609
21
448.5
31
0
0
TEXT
5
AA
100
AcDbEntity
8
S002_LABELS
100
AcDbText
10
2510
20
463.5
30
0
40
12
1
C012
50
0
7
STANDARD
72
1
11
2510
21
463.5
31
0
100
AcDbText
73
2
999
S002 C013 CUT_JSON {"id":"sheet-2-C0013","cutId":"sheet-2-C0013","sequence":13,"axis":"x","x1":502.5,"y1":1248,"x2":502.5,"y2":2790,"kerf":3,"kerfBand":{"x":501,"y":1248,"width":3,"height":1542},"actualKerfBand":{"x":501,"y":1248,"width":3,"height":1542},"parentRegionId":"sheet-2-R0023","resultRegionIds":["sheet-2-R0026","sheet-2-R0027"],"kind":"separate","stage":"separate","retainedEdge":"left","parentX":412,"parentY":1248,"parentWidth":1678,"parentHeight":1542,"bladeCenterOffsetMm":90.5,"retainedSizeMm":89}
0
LINE
5
AB
100
AcDbEntity
8
S002_C013_CUT
100
AcDbLine
10
2702.5
20
1552
30
0
11
2702.5
21
10
31
0
0
TEXT
5
AC
100
AcDbEntity
8
S002_LABELS
100
AcDbText
10
2717.5
20
781
30
0
40
12
1
C013
50
0
7
STANDARD
72
1
11
2717.5
21
781
31
0
100
AcDbText
73
2
999
S002 C014 CUT_JSON {"id":"sheet-2-C0014","cutId":"sheet-2-C0014","sequence":14,"axis":"y","x1":412,"y1":2413.5,"x2":501,"y2":2413.5,"kerf":3,"kerfBand":{"x":412,"y":2412,"width":89,"height":3},"actualKerfBand":{"x":412,"y":2412,"width":89,"height":3},"parentRegionId":"sheet-2-R0026","resultRegionIds":["sheet-2-R0028","sheet-2-R0029"],"kind":"separate","stage":"separate","retainedEdge":"top","parentX":412,"parentY":1248,"parentWidth":89,"parentHeight":1542,"bladeCenterOffsetMm":1165.5,"retainedSizeMm":1164}
0
LINE
5
AD
100
AcDbEntity
8
S002_C014_CUT
100
AcDbLine
10
2612
20
386.5
30
0
11
2701
21
386.5
31
0
0
TEXT
5
AE
100
AcDbEntity
8
S002_LABELS
100
AcDbText
10
2656.5
20
401.5
30
0
40
12
1
C014
50
0
7
STANDARD
72
1
11
2656.5
21
401.5
31
0
100
AcDbText
73
2
999
S003 SHEET_JSON {"id":"sheet-3","materialId":"thin-back-3","thickness":3,"width":2100,"height":2800,"margin":10,"kerf":3,"offsetX":4400}
0
LWPOLYLINE
5
AF
100
AcDbEntity
8
S003_STOCK
100
AcDbPolyline
90
4
70
1
10
4400
20
0
10
6500
20
0
10
6500
20
2800
10
4400
20
2800
0
TEXT
5
B0
100
AcDbEntity
8
S003_LABELS
100
AcDbText
10
5450
20
2835
30
0
40
20
1
S003 2100x2800 T3 K3
50
0
7
STANDARD
72
1
11
5450
21
2835
31
0
100
AcDbText
73
2
0
TEXT
5
B1
100
AcDbEntity
8
S003_LABELS
100
AcDbText
10
5450
20
2865
30
0
40
20
1
Sert lif levha \U+00B7 arkal\U+0131k \U+00B7 3 mm / 3 mm
50
0
7
STANDARD
72
1
11
5450
21
2865
31
0
100
AcDbText
73
2
999
S003 C001 CUT_JSON {"id":"sheet-3-C0001","cutId":"sheet-3-C0001","sequence":1,"axis":"x","x1":8.5,"y1":0,"x2":8.5,"y2":2800,"kerf":3,"kerfBand":{"x":7,"y":0,"width":3,"height":2800},"actualKerfBand":{"x":7,"y":0,"width":3,"height":2800},"parentRegionId":"sheet-3-R0001","resultRegionIds":["sheet-3-R0002","sheet-3-R0003"],"kind":"trim","stage":"trim-left","retainedEdge":"right","parentX":0,"parentY":0,"parentWidth":2100,"parentHeight":2800,"bladeCenterOffsetMm":8.5,"retainedSizeMm":2090}
0
LINE
5
B2
100
AcDbEntity
8
S003_C001_TRIM
100
AcDbLine
10
4408.5
20
2800
30
0
11
4408.5
21
0
31
0
0
TEXT
5
B3
100
AcDbEntity
8
S003_LABELS
100
AcDbText
10
4423.5
20
1400
30
0
40
12
1
C001
50
0
7
STANDARD
72
1
11
4423.5
21
1400
31
0
100
AcDbText
73
2
999
S003 C002 CUT_JSON {"id":"sheet-3-C0002","cutId":"sheet-3-C0002","sequence":2,"axis":"x","x1":2091.5,"y1":0,"x2":2091.5,"y2":2800,"kerf":3,"kerfBand":{"x":2090,"y":0,"width":3,"height":2800},"actualKerfBand":{"x":2090,"y":0,"width":3,"height":2800},"parentRegionId":"sheet-3-R0003","resultRegionIds":["sheet-3-R0004","sheet-3-R0005"],"kind":"trim","stage":"trim-right","retainedEdge":"left","parentX":10,"parentY":0,"parentWidth":2090,"parentHeight":2800,"bladeCenterOffsetMm":2081.5,"retainedSizeMm":2080}
0
LINE
5
B4
100
AcDbEntity
8
S003_C002_TRIM
100
AcDbLine
10
6491.5
20
2800
30
0
11
6491.5
21
0
31
0
0
TEXT
5
B5
100
AcDbEntity
8
S003_LABELS
100
AcDbText
10
6506.5
20
1400
30
0
40
12
1
C002
50
0
7
STANDARD
72
1
11
6506.5
21
1400
31
0
100
AcDbText
73
2
999
S003 C003 CUT_JSON {"id":"sheet-3-C0003","cutId":"sheet-3-C0003","sequence":3,"axis":"y","x1":10,"y1":8.5,"x2":2090,"y2":8.5,"kerf":3,"kerfBand":{"x":10,"y":7,"width":2080,"height":3},"actualKerfBand":{"x":10,"y":7,"width":2080,"height":3},"parentRegionId":"sheet-3-R0004","resultRegionIds":["sheet-3-R0006","sheet-3-R0007"],"kind":"trim","stage":"trim-top","retainedEdge":"bottom","parentX":10,"parentY":0,"parentWidth":2080,"parentHeight":2800,"bladeCenterOffsetMm":8.5,"retainedSizeMm":2790}
0
LINE
5
B6
100
AcDbEntity
8
S003_C003_TRIM
100
AcDbLine
10
4410
20
2791.5
30
0
11
6490
21
2791.5
31
0
0
TEXT
5
B7
100
AcDbEntity
8
S003_LABELS
100
AcDbText
10
5450
20
2806.5
30
0
40
12
1
C003
50
0
7
STANDARD
72
1
11
5450
21
2806.5
31
0
100
AcDbText
73
2
999
S003 C004 CUT_JSON {"id":"sheet-3-C0004","cutId":"sheet-3-C0004","sequence":4,"axis":"y","x1":10,"y1":2791.5,"x2":2090,"y2":2791.5,"kerf":3,"kerfBand":{"x":10,"y":2790,"width":2080,"height":3},"actualKerfBand":{"x":10,"y":2790,"width":2080,"height":3},"parentRegionId":"sheet-3-R0007","resultRegionIds":["sheet-3-R0008","sheet-3-R0009"],"kind":"trim","stage":"trim-bottom","retainedEdge":"top","parentX":10,"parentY":10,"parentWidth":2080,"parentHeight":2790,"bladeCenterOffsetMm":2781.5,"retainedSizeMm":2780}
0
LINE
5
B8
100
AcDbEntity
8
S003_C004_TRIM
100
AcDbLine
10
4410
20
8.5
30
0
11
6490
21
8.5
31
0
0
TEXT
5
B9
100
AcDbEntity
8
S003_LABELS
100
AcDbText
10
5450
20
23.5
30
0
40
12
1
C004
50
0
7
STANDARD
72
1
11
5450
21
23.5
31
0
100
AcDbText
73
2
999
S003 C005 CUT_JSON {"id":"sheet-3-C0005","cutId":"sheet-3-C0005","sequence":5,"axis":"x","x1":1211.5,"y1":10,"x2":1211.5,"y2":2790,"kerf":3,"kerfBand":{"x":1210,"y":10,"width":3,"height":2780},"actualKerfBand":{"x":1210,"y":10,"width":3,"height":2780},"parentRegionId":"sheet-3-R0008","resultRegionIds":["sheet-3-R0010","sheet-3-R0011"],"kind":"separate","stage":"separate","retainedEdge":"left","parentX":10,"parentY":10,"parentWidth":2080,"parentHeight":2780,"bladeCenterOffsetMm":1201.5,"retainedSizeMm":1200}
0
LINE
5
BA
100
AcDbEntity
8
S003_C005_CUT
100
AcDbLine
10
5611.5
20
2790
30
0
11
5611.5
21
10
31
0
0
TEXT
5
BB
100
AcDbEntity
8
S003_LABELS
100
AcDbText
10
5626.5
20
1400
30
0
40
12
1
C005
50
0
7
STANDARD
72
1
11
5626.5
21
1400
31
0
100
AcDbText
73
2
999
S003 C006 CUT_JSON {"id":"sheet-3-C0006","cutId":"sheet-3-C0006","sequence":6,"axis":"y","x1":10,"y1":2111.5,"x2":1210,"y2":2111.5,"kerf":3,"kerfBand":{"x":10,"y":2110,"width":1200,"height":3},"actualKerfBand":{"x":10,"y":2110,"width":1200,"height":3},"parentRegionId":"sheet-3-R0010","resultRegionIds":["sheet-3-R0012","sheet-3-R0013"],"kind":"separate","stage":"separate","retainedEdge":"top","parentX":10,"parentY":10,"parentWidth":1200,"parentHeight":2780,"bladeCenterOffsetMm":2101.5,"retainedSizeMm":2100}
0
LINE
5
BC
100
AcDbEntity
8
S003_C006_CUT
100
AcDbLine
10
4410
20
688.5
30
0
11
5610
21
688.5
31
0
0
TEXT
5
BD
100
AcDbEntity
8
S003_LABELS
100
AcDbText
10
5010
20
703.5
30
0
40
12
1
C006
50
0
7
STANDARD
72
1
11
5010
21
703.5
31
0
100
AcDbText
73
2
999
S004 SHEET_JSON {"id":"sheet-4","materialId":"mdf-oak","thickness":18,"width":2100,"height":2800,"margin":10,"kerf":3,"offsetX":6600}
0
LWPOLYLINE
5
BE
100
AcDbEntity
8
S004_STOCK
100
AcDbPolyline
90
4
70
1
10
6600
20
0
10
8700
20
0
10
8700
20
2800
10
6600
20
2800
0
TEXT
5
BF
100
AcDbEntity
8
S004_LABELS
100
AcDbText
10
7650
20
2835
30
0
40
20
1
S004 2100x2800 T18 K3
50
0
7
STANDARD
72
1
11
7650
21
2835
31
0
100
AcDbText
73
2
0
TEXT
5
C0
100
AcDbEntity
8
S004_LABELS
100
AcDbText
10
7650
20
2865
30
0
40
20
1
Y\U+0131ld\U+0131z MDFLAM \U+00B7 Valley Me\U+015Fe YT_10E \U+00B7 18 mm / YT_10E / 18 mm
50
0
7
STANDARD
72
1
11
7650
21
2865
31
0
100
AcDbText
73
2
999
S004 C001 CUT_JSON {"id":"sheet-4-C0001","cutId":"sheet-4-C0001","sequence":1,"axis":"x","x1":8.5,"y1":0,"x2":8.5,"y2":2800,"kerf":3,"kerfBand":{"x":7,"y":0,"width":3,"height":2800},"actualKerfBand":{"x":7,"y":0,"width":3,"height":2800},"parentRegionId":"sheet-4-R0001","resultRegionIds":["sheet-4-R0002","sheet-4-R0003"],"kind":"trim","stage":"trim-left","retainedEdge":"right","parentX":0,"parentY":0,"parentWidth":2100,"parentHeight":2800,"bladeCenterOffsetMm":8.5,"retainedSizeMm":2090}
0
LINE
5
C1
100
AcDbEntity
8
S004_C001_TRIM
100
AcDbLine
10
6608.5
20
2800
30
0
11
6608.5
21
0
31
0
0
TEXT
5
C2
100
AcDbEntity
8
S004_LABELS
100
AcDbText
10
6623.5
20
1400
30
0
40
12
1
C001
50
0
7
STANDARD
72
1
11
6623.5
21
1400
31
0
100
AcDbText
73
2
999
S004 C002 CUT_JSON {"id":"sheet-4-C0002","cutId":"sheet-4-C0002","sequence":2,"axis":"x","x1":2091.5,"y1":0,"x2":2091.5,"y2":2800,"kerf":3,"kerfBand":{"x":2090,"y":0,"width":3,"height":2800},"actualKerfBand":{"x":2090,"y":0,"width":3,"height":2800},"parentRegionId":"sheet-4-R0003","resultRegionIds":["sheet-4-R0004","sheet-4-R0005"],"kind":"trim","stage":"trim-right","retainedEdge":"left","parentX":10,"parentY":0,"parentWidth":2090,"parentHeight":2800,"bladeCenterOffsetMm":2081.5,"retainedSizeMm":2080}
0
LINE
5
C3
100
AcDbEntity
8
S004_C002_TRIM
100
AcDbLine
10
8691.5
20
2800
30
0
11
8691.5
21
0
31
0
0
TEXT
5
C4
100
AcDbEntity
8
S004_LABELS
100
AcDbText
10
8706.5
20
1400
30
0
40
12
1
C002
50
0
7
STANDARD
72
1
11
8706.5
21
1400
31
0
100
AcDbText
73
2
999
S004 C003 CUT_JSON {"id":"sheet-4-C0003","cutId":"sheet-4-C0003","sequence":3,"axis":"y","x1":10,"y1":8.5,"x2":2090,"y2":8.5,"kerf":3,"kerfBand":{"x":10,"y":7,"width":2080,"height":3},"actualKerfBand":{"x":10,"y":7,"width":2080,"height":3},"parentRegionId":"sheet-4-R0004","resultRegionIds":["sheet-4-R0006","sheet-4-R0007"],"kind":"trim","stage":"trim-top","retainedEdge":"bottom","parentX":10,"parentY":0,"parentWidth":2080,"parentHeight":2800,"bladeCenterOffsetMm":8.5,"retainedSizeMm":2790}
0
LINE
5
C5
100
AcDbEntity
8
S004_C003_TRIM
100
AcDbLine
10
6610
20
2791.5
30
0
11
8690
21
2791.5
31
0
0
TEXT
5
C6
100
AcDbEntity
8
S004_LABELS
100
AcDbText
10
7650
20
2806.5
30
0
40
12
1
C003
50
0
7
STANDARD
72
1
11
7650
21
2806.5
31
0
100
AcDbText
73
2
999
S004 C004 CUT_JSON {"id":"sheet-4-C0004","cutId":"sheet-4-C0004","sequence":4,"axis":"y","x1":10,"y1":2791.5,"x2":2090,"y2":2791.5,"kerf":3,"kerfBand":{"x":10,"y":2790,"width":2080,"height":3},"actualKerfBand":{"x":10,"y":2790,"width":2080,"height":3},"parentRegionId":"sheet-4-R0007","resultRegionIds":["sheet-4-R0008","sheet-4-R0009"],"kind":"trim","stage":"trim-bottom","retainedEdge":"top","parentX":10,"parentY":10,"parentWidth":2080,"parentHeight":2790,"bladeCenterOffsetMm":2781.5,"retainedSizeMm":2780}
0
LINE
5
C7
100
AcDbEntity
8
S004_C004_TRIM
100
AcDbLine
10
6610
20
8.5
30
0
11
8690
21
8.5
31
0
0
TEXT
5
C8
100
AcDbEntity
8
S004_LABELS
100
AcDbText
10
7650
20
23.5
30
0
40
12
1
C004
50
0
7
STANDARD
72
1
11
7650
21
23.5
31
0
100
AcDbText
73
2
999
S004 C005 CUT_JSON {"id":"sheet-4-C0005","cutId":"sheet-4-C0005","sequence":5,"axis":"x","x1":606.5,"y1":10,"x2":606.5,"y2":2790,"kerf":3,"kerfBand":{"x":605,"y":10,"width":3,"height":2780},"actualKerfBand":{"x":605,"y":10,"width":3,"height":2780},"parentRegionId":"sheet-4-R0008","resultRegionIds":["sheet-4-R0010","sheet-4-R0011"],"kind":"separate","stage":"separate","retainedEdge":"left","parentX":10,"parentY":10,"parentWidth":2080,"parentHeight":2780,"bladeCenterOffsetMm":596.5,"retainedSizeMm":595}
0
LINE
5
C9
100
AcDbEntity
8
S004_C005_CUT
100
AcDbLine
10
7206.5
20
2790
30
0
11
7206.5
21
10
31
0
0
TEXT
5
CA
100
AcDbEntity
8
S004_LABELS
100
AcDbText
10
7221.5
20
1400
30
0
40
12
1
C005
50
0
7
STANDARD
72
1
11
7221.5
21
1400
31
0
100
AcDbText
73
2
999
S004 C006 CUT_JSON {"id":"sheet-4-C0006","cutId":"sheet-4-C0006","sequence":6,"axis":"y","x1":10,"y1":933.5,"x2":605,"y2":933.5,"kerf":3,"kerfBand":{"x":10,"y":932,"width":595,"height":3},"actualKerfBand":{"x":10,"y":932,"width":595,"height":3},"parentRegionId":"sheet-4-R0010","resultRegionIds":["sheet-4-R0012","sheet-4-R0013"],"kind":"separate","stage":"separate","retainedEdge":"top","parentX":10,"parentY":10,"parentWidth":595,"parentHeight":2780,"bladeCenterOffsetMm":923.5,"retainedSizeMm":922}
0
LINE
5
CB
100
AcDbEntity
8
S004_C006_CUT
100
AcDbLine
10
6610
20
1866.5
30
0
11
7205
21
1866.5
31
0
0
TEXT
5
CC
100
AcDbEntity
8
S004_LABELS
100
AcDbText
10
6907.5
20
1881.5
30
0
40
12
1
C006
50
0
7
STANDARD
72
1
11
6907.5
21
1881.5
31
0
100
AcDbText
73
2
999
S004 C007 CUT_JSON {"id":"sheet-4-C0007","cutId":"sheet-4-C0007","sequence":7,"axis":"y","x1":10,"y1":1858.5,"x2":605,"y2":1858.5,"kerf":3,"kerfBand":{"x":10,"y":1857,"width":595,"height":3},"actualKerfBand":{"x":10,"y":1857,"width":595,"height":3},"parentRegionId":"sheet-4-R0013","resultRegionIds":["sheet-4-R0014","sheet-4-R0015"],"kind":"separate","stage":"separate","retainedEdge":"top","parentX":10,"parentY":935,"parentWidth":595,"parentHeight":1855,"bladeCenterOffsetMm":923.5,"retainedSizeMm":922}
0
LINE
5
CD
100
AcDbEntity
8
S004_C007_CUT
100
AcDbLine
10
6610
20
941.5
30
0
11
7205
21
941.5
31
0
0
TEXT
5
CE
100
AcDbEntity
8
S004_LABELS
100
AcDbText
10
6907.5
20
956.5
30
0
40
12
1
C007
50
0
7
STANDARD
72
1
11
6907.5
21
956.5
31
0
100
AcDbText
73
2
999
S004 C008 CUT_JSON {"id":"sheet-4-C0008","cutId":"sheet-4-C0008","sequence":8,"axis":"y","x1":10,"y1":2531.5,"x2":605,"y2":2531.5,"kerf":3,"kerfBand":{"x":10,"y":2530,"width":595,"height":3},"actualKerfBand":{"x":10,"y":2530,"width":595,"height":3},"parentRegionId":"sheet-4-R0015","resultRegionIds":["sheet-4-R0016","sheet-4-R0017"],"kind":"separate","stage":"separate","retainedEdge":"top","parentX":10,"parentY":1860,"parentWidth":595,"parentHeight":930,"bladeCenterOffsetMm":671.5,"retainedSizeMm":670}
0
LINE
5
CF
100
AcDbEntity
8
S004_C008_CUT
100
AcDbLine
10
6610
20
268.5
30
0
11
7205
21
268.5
31
0
0
TEXT
5
D0
100
AcDbEntity
8
S004_LABELS
100
AcDbText
10
6907.5
20
283.5
30
0
40
12
1
C008
50
0
7
STANDARD
72
1
11
6907.5
21
283.5
31
0
100
AcDbText
73
2
999
S004 C009 CUT_JSON {"id":"sheet-4-C0009","cutId":"sheet-4-C0009","sequence":9,"axis":"y","x1":608,"y1":681.5,"x2":2090,"y2":681.5,"kerf":3,"kerfBand":{"x":608,"y":680,"width":1482,"height":3},"actualKerfBand":{"x":608,"y":680,"width":1482,"height":3},"parentRegionId":"sheet-4-R0011","resultRegionIds":["sheet-4-R0018","sheet-4-R0019"],"kind":"separate","stage":"separate","retainedEdge":"top","parentX":608,"parentY":10,"parentWidth":1482,"parentHeight":2780,"bladeCenterOffsetMm":671.5,"retainedSizeMm":670}
0
LINE
5
D1
100
AcDbEntity
8
S004_C009_CUT
100
AcDbLine
10
7208
20
2118.5
30
0
11
8690
21
2118.5
31
0
0
TEXT
5
D2
100
AcDbEntity
8
S004_LABELS
100
AcDbText
10
7949
20
2133.5
30
0
40
12
1
C009
50
0
7
STANDARD
72
1
11
7949
21
2133.5
31
0
100
AcDbText
73
2
999
S004 C010 CUT_JSON {"id":"sheet-4-C0010","cutId":"sheet-4-C0010","sequence":10,"axis":"x","x1":1204.5,"y1":10,"x2":1204.5,"y2":680,"kerf":3,"kerfBand":{"x":1203,"y":10,"width":3,"height":670},"actualKerfBand":{"x":1203,"y":10,"width":3,"height":670},"parentRegionId":"sheet-4-R0018","resultRegionIds":["sheet-4-R0020","sheet-4-R0021"],"kind":"separate","stage":"separate","retainedEdge":"left","parentX":608,"parentY":10,"parentWidth":1482,"parentHeight":670,"bladeCenterOffsetMm":596.5,"retainedSizeMm":595}
0
LINE
5
D3
100
AcDbEntity
8
S004_C010_CUT
100
AcDbLine
10
7804.5
20
2790
30
0
11
7804.5
21
2120
31
0
0
TEXT
5
D4
100
AcDbEntity
8
S004_LABELS
100
AcDbText
10
7819.5
20
2455
30
0
40
12
1
C010
50
0
7
STANDARD
72
1
11
7819.5
21
2455
31
0
100
AcDbText
73
2
999
S004 C011 CUT_JSON {"id":"sheet-4-C0011","cutId":"sheet-4-C0011","sequence":11,"axis":"y","x1":608,"y1":929.5,"x2":2090,"y2":929.5,"kerf":3,"kerfBand":{"x":608,"y":928,"width":1482,"height":3},"actualKerfBand":{"x":608,"y":928,"width":1482,"height":3},"parentRegionId":"sheet-4-R0019","resultRegionIds":["sheet-4-R0022","sheet-4-R0023"],"kind":"separate","stage":"separate","retainedEdge":"top","parentX":608,"parentY":683,"parentWidth":1482,"parentHeight":2107,"bladeCenterOffsetMm":246.5,"retainedSizeMm":245}
0
LINE
5
D5
100
AcDbEntity
8
S004_C011_CUT
100
AcDbLine
10
7208
20
1870.5
30
0
11
8690
21
1870.5
31
0
0
TEXT
5
D6
100
AcDbEntity
8
S004_LABELS
100
AcDbText
10
7949
20
1885.5
30
0
40
12
1
C011
50
0
7
STANDARD
72
1
11
7949
21
1885.5
31
0
100
AcDbText
73
2
999
S004 C012 CUT_JSON {"id":"sheet-4-C0012","cutId":"sheet-4-C0012","sequence":12,"axis":"x","x1":1803.5,"y1":683,"x2":1803.5,"y2":928,"kerf":3,"kerfBand":{"x":1802,"y":683,"width":3,"height":245},"actualKerfBand":{"x":1802,"y":683,"width":3,"height":245},"parentRegionId":"sheet-4-R0022","resultRegionIds":["sheet-4-R0024","sheet-4-R0025"],"kind":"separate","stage":"separate","retainedEdge":"left","parentX":608,"parentY":683,"parentWidth":1482,"parentHeight":245,"bladeCenterOffsetMm":1195.5,"retainedSizeMm":1194}
0
LINE
5
D7
100
AcDbEntity
8
S004_C012_CUT
100
AcDbLine
10
8403.5
20
2117
30
0
11
8403.5
21
1872
31
0
0
TEXT
5
D8
100
AcDbEntity
8
S004_LABELS
100
AcDbText
10
8418.5
20
1994.5
30
0
40
12
1
C012
50
0
7
STANDARD
72
1
11
8418.5
21
1994.5
31
0
100
AcDbText
73
2
999
S004 C013 CUT_JSON {"id":"sheet-4-C0013","cutId":"sheet-4-C0013","sequence":13,"axis":"y","x1":608,"y1":1177.5,"x2":2090,"y2":1177.5,"kerf":3,"kerfBand":{"x":608,"y":1176,"width":1482,"height":3},"actualKerfBand":{"x":608,"y":1176,"width":1482,"height":3},"parentRegionId":"sheet-4-R0023","resultRegionIds":["sheet-4-R0026","sheet-4-R0027"],"kind":"separate","stage":"separate","retainedEdge":"top","parentX":608,"parentY":931,"parentWidth":1482,"parentHeight":1859,"bladeCenterOffsetMm":246.5,"retainedSizeMm":245}
0
LINE
5
D9
100
AcDbEntity
8
S004_C013_CUT
100
AcDbLine
10
7208
20
1622.5
30
0
11
8690
21
1622.5
31
0
0
TEXT
5
DA
100
AcDbEntity
8
S004_LABELS
100
AcDbText
10
7949
20
1637.5
30
0
40
12
1
C013
50
0
7
STANDARD
72
1
11
7949
21
1637.5
31
0
100
AcDbText
73
2
999
S004 C014 CUT_JSON {"id":"sheet-4-C0014","cutId":"sheet-4-C0014","sequence":14,"axis":"x","x1":1803.5,"y1":931,"x2":1803.5,"y2":1176,"kerf":3,"kerfBand":{"x":1802,"y":931,"width":3,"height":245},"actualKerfBand":{"x":1802,"y":931,"width":3,"height":245},"parentRegionId":"sheet-4-R0026","resultRegionIds":["sheet-4-R0028","sheet-4-R0029"],"kind":"separate","stage":"separate","retainedEdge":"left","parentX":608,"parentY":931,"parentWidth":1482,"parentHeight":245,"bladeCenterOffsetMm":1195.5,"retainedSizeMm":1194}
0
LINE
5
DB
100
AcDbEntity
8
S004_C014_CUT
100
AcDbLine
10
8403.5
20
1869
30
0
11
8403.5
21
1624
31
0
0
TEXT
5
DC
100
AcDbEntity
8
S004_LABELS
100
AcDbText
10
8418.5
20
1746.5
30
0
40
12
1
C014
50
0
7
STANDARD
72
1
11
8418.5
21
1746.5
31
0
100
AcDbText
73
2
999
S005 SHEET_JSON {"id":"sheet-5","materialId":"hdf-back","thickness":8,"width":2100,"height":2800,"margin":10,"kerf":3,"offsetX":8800}
0
LWPOLYLINE
5
DD
100
AcDbEntity
8
S005_STOCK
100
AcDbPolyline
90
4
70
1
10
8800
20
0
10
10900
20
0
10
10900
20
2800
10
8800
20
2800
0
TEXT
5
DE
100
AcDbEntity
8
S005_LABELS
100
AcDbText
10
9850
20
2835
30
0
40
20
1
S005 2100x2800 T8 K3
50
0
7
STANDARD
72
1
11
9850
21
2835
31
0
100
AcDbText
73
2
0
TEXT
5
DF
100
AcDbEntity
8
S005_LABELS
100
AcDbText
10
9850
20
2865
30
0
40
20
1
Y\U+0131ld\U+0131z MDFLAM \U+00B7 Beyaz VT_068 \U+00B7 8 mm / VT_068 / 8 mm
50
0
7
STANDARD
72
1
11
9850
21
2865
31
0
100
AcDbText
73
2
999
S005 C001 CUT_JSON {"id":"sheet-5-C0001","cutId":"sheet-5-C0001","sequence":1,"axis":"x","x1":8.5,"y1":0,"x2":8.5,"y2":2800,"kerf":3,"kerfBand":{"x":7,"y":0,"width":3,"height":2800},"actualKerfBand":{"x":7,"y":0,"width":3,"height":2800},"parentRegionId":"sheet-5-R0001","resultRegionIds":["sheet-5-R0002","sheet-5-R0003"],"kind":"trim","stage":"trim-left","retainedEdge":"right","parentX":0,"parentY":0,"parentWidth":2100,"parentHeight":2800,"bladeCenterOffsetMm":8.5,"retainedSizeMm":2090}
0
LINE
5
E0
100
AcDbEntity
8
S005_C001_TRIM
100
AcDbLine
10
8808.5
20
2800
30
0
11
8808.5
21
0
31
0
0
TEXT
5
E1
100
AcDbEntity
8
S005_LABELS
100
AcDbText
10
8823.5
20
1400
30
0
40
12
1
C001
50
0
7
STANDARD
72
1
11
8823.5
21
1400
31
0
100
AcDbText
73
2
999
S005 C002 CUT_JSON {"id":"sheet-5-C0002","cutId":"sheet-5-C0002","sequence":2,"axis":"x","x1":2091.5,"y1":0,"x2":2091.5,"y2":2800,"kerf":3,"kerfBand":{"x":2090,"y":0,"width":3,"height":2800},"actualKerfBand":{"x":2090,"y":0,"width":3,"height":2800},"parentRegionId":"sheet-5-R0003","resultRegionIds":["sheet-5-R0004","sheet-5-R0005"],"kind":"trim","stage":"trim-right","retainedEdge":"left","parentX":10,"parentY":0,"parentWidth":2090,"parentHeight":2800,"bladeCenterOffsetMm":2081.5,"retainedSizeMm":2080}
0
LINE
5
E2
100
AcDbEntity
8
S005_C002_TRIM
100
AcDbLine
10
10891.5
20
2800
30
0
11
10891.5
21
0
31
0
0
TEXT
5
E3
100
AcDbEntity
8
S005_LABELS
100
AcDbText
10
10906.5
20
1400
30
0
40
12
1
C002
50
0
7
STANDARD
72
1
11
10906.5
21
1400
31
0
100
AcDbText
73
2
999
S005 C003 CUT_JSON {"id":"sheet-5-C0003","cutId":"sheet-5-C0003","sequence":3,"axis":"y","x1":10,"y1":8.5,"x2":2090,"y2":8.5,"kerf":3,"kerfBand":{"x":10,"y":7,"width":2080,"height":3},"actualKerfBand":{"x":10,"y":7,"width":2080,"height":3},"parentRegionId":"sheet-5-R0004","resultRegionIds":["sheet-5-R0006","sheet-5-R0007"],"kind":"trim","stage":"trim-top","retainedEdge":"bottom","parentX":10,"parentY":0,"parentWidth":2080,"parentHeight":2800,"bladeCenterOffsetMm":8.5,"retainedSizeMm":2790}
0
LINE
5
E4
100
AcDbEntity
8
S005_C003_TRIM
100
AcDbLine
10
8810
20
2791.5
30
0
11
10890
21
2791.5
31
0
0
TEXT
5
E5
100
AcDbEntity
8
S005_LABELS
100
AcDbText
10
9850
20
2806.5
30
0
40
12
1
C003
50
0
7
STANDARD
72
1
11
9850
21
2806.5
31
0
100
AcDbText
73
2
999
S005 C004 CUT_JSON {"id":"sheet-5-C0004","cutId":"sheet-5-C0004","sequence":4,"axis":"y","x1":10,"y1":2791.5,"x2":2090,"y2":2791.5,"kerf":3,"kerfBand":{"x":10,"y":2790,"width":2080,"height":3},"actualKerfBand":{"x":10,"y":2790,"width":2080,"height":3},"parentRegionId":"sheet-5-R0007","resultRegionIds":["sheet-5-R0008","sheet-5-R0009"],"kind":"trim","stage":"trim-bottom","retainedEdge":"top","parentX":10,"parentY":10,"parentWidth":2080,"parentHeight":2790,"bladeCenterOffsetMm":2781.5,"retainedSizeMm":2780}
0
LINE
5
E6
100
AcDbEntity
8
S005_C004_TRIM
100
AcDbLine
10
8810
20
8.5
30
0
11
10890
21
8.5
31
0
0
TEXT
5
E7
100
AcDbEntity
8
S005_LABELS
100
AcDbText
10
9850
20
23.5
30
0
40
12
1
C004
50
0
7
STANDARD
72
1
11
9850
21
23.5
31
0
100
AcDbText
73
2
999
S005 C005 CUT_JSON {"id":"sheet-5-C0005","cutId":"sheet-5-C0005","sequence":5,"axis":"y","x1":10,"y1":588.5,"x2":2090,"y2":588.5,"kerf":3,"kerfBand":{"x":10,"y":587,"width":2080,"height":3},"actualKerfBand":{"x":10,"y":587,"width":2080,"height":3},"parentRegionId":"sheet-5-R0008","resultRegionIds":["sheet-5-R0010","sheet-5-R0011"],"kind":"separate","stage":"separate","retainedEdge":"top","parentX":10,"parentY":10,"parentWidth":2080,"parentHeight":2780,"bladeCenterOffsetMm":578.5,"retainedSizeMm":577}
0
LINE
5
E8
100
AcDbEntity
8
S005_C005_CUT
100
AcDbLine
10
8810
20
2211.5
30
0
11
10890
21
2211.5
31
0
0
TEXT
5
E9
100
AcDbEntity
8
S005_LABELS
100
AcDbText
10
9850
20
2226.5
30
0
40
12
1
C005
50
0
7
STANDARD
72
1
11
9850
21
2226.5
31
0
100
AcDbText
73
2
999
S005 C006 CUT_JSON {"id":"sheet-5-C0006","cutId":"sheet-5-C0006","sequence":6,"axis":"x","x1":1149.5,"y1":10,"x2":1149.5,"y2":587,"kerf":3,"kerfBand":{"x":1148,"y":10,"width":3,"height":577},"actualKerfBand":{"x":1148,"y":10,"width":3,"height":577},"parentRegionId":"sheet-5-R0010","resultRegionIds":["sheet-5-R0012","sheet-5-R0013"],"kind":"separate","stage":"separate","retainedEdge":"left","parentX":10,"parentY":10,"parentWidth":2080,"parentHeight":577,"bladeCenterOffsetMm":1139.5,"retainedSizeMm":1138}
0
LINE
5
EA
100
AcDbEntity
8
S005_C006_CUT
100
AcDbLine
10
9949.5
20
2790
30
0
11
9949.5
21
2213
31
0
0
TEXT
5
EB
100
AcDbEntity
8
S005_LABELS
100
AcDbText
10
9964.5
20
2501.5
30
0
40
12
1
C006
50
0
7
STANDARD
72
1
11
9964.5
21
2501.5
31
0
100
AcDbText
73
2
999
S005 C007 CUT_JSON {"id":"sheet-5-C0007","cutId":"sheet-5-C0007","sequence":7,"axis":"y","x1":10,"y1":1168.5,"x2":2090,"y2":1168.5,"kerf":3,"kerfBand":{"x":10,"y":1167,"width":2080,"height":3},"actualKerfBand":{"x":10,"y":1167,"width":2080,"height":3},"parentRegionId":"sheet-5-R0011","resultRegionIds":["sheet-5-R0014","sheet-5-R0015"],"kind":"separate","stage":"separate","retainedEdge":"top","parentX":10,"parentY":590,"parentWidth":2080,"parentHeight":2200,"bladeCenterOffsetMm":578.5,"retainedSizeMm":577}
0
LINE
5
EC
100
AcDbEntity
8
S005_C007_CUT
100
AcDbLine
10
8810
20
1631.5
30
0
11
10890
21
1631.5
31
0
0
TEXT
5
ED
100
AcDbEntity
8
S005_LABELS
100
AcDbText
10
9850
20
1646.5
30
0
40
12
1
C007
50
0
7
STANDARD
72
1
11
9850
21
1646.5
31
0
100
AcDbText
73
2
999
S005 C008 CUT_JSON {"id":"sheet-5-C0008","cutId":"sheet-5-C0008","sequence":8,"axis":"x","x1":1149.5,"y1":590,"x2":1149.5,"y2":1167,"kerf":3,"kerfBand":{"x":1148,"y":590,"width":3,"height":577},"actualKerfBand":{"x":1148,"y":590,"width":3,"height":577},"parentRegionId":"sheet-5-R0014","resultRegionIds":["sheet-5-R0016","sheet-5-R0017"],"kind":"separate","stage":"separate","retainedEdge":"left","parentX":10,"parentY":590,"parentWidth":2080,"parentHeight":577,"bladeCenterOffsetMm":1139.5,"retainedSizeMm":1138}
0
LINE
5
EE
100
AcDbEntity
8
S005_C008_CUT
100
AcDbLine
10
9949.5
20
2210
30
0
11
9949.5
21
1633
31
0
0
TEXT
5
EF
100
AcDbEntity
8
S005_LABELS
100
AcDbText
10
9964.5
20
1921.5
30
0
40
12
1
C008
50
0
7
STANDARD
72
1
11
9964.5
21
1921.5
31
0
100
AcDbText
73
2
0
ENDSEC
0
EOF
