0
SECTION
2
HEADER
9
$ACADVER
1
AC1015
9
$INSUNITS
70
4
9
$MEASUREMENT
70
1
9
$LUNITS
70
2
9
$LUPREC
70
3
9
$EXTMIN
10
0
20
0
30
0
9
$EXTMAX
10
11000
20
2890
30
0
0
ENDSEC
0
SECTION
2
TABLES
0
TABLE
2
LAYER
5
10
100
AcDbSymbolTable
70
34
0
LAYER
5
11
100
AcDbSymbolTableRecord
100
AcDbLayerTableRecord
2
S001_STOCK
70
0
62
8
6
CONTINUOUS
0
LAYER
5
12
100
AcDbSymbolTableRecord
100
AcDbLayerTableRecord
2
S001_LABELS
70
0
62
2
6
CONTINUOUS
0
LAYER
5
13
100
AcDbSymbolTableRecord
100
AcDbLayerTableRecord
2
S001_PART_P0001
70
0
62
7
6
CONTINUOUS
0
LAYER
5
14
100
AcDbSymbolTableRecord
100
AcDbLayerTableRecord
2
S001_PART_P0002
70
0
62
7
6
CONTINUOUS
0
LAYER
5
15
100
AcDbSymbolTableRecord
100
AcDbLayerTableRecord
2
S001_PART_P0003
70
0
62
7
6
CONTINUOUS
0
LAYER
5
16
100
AcDbSymbolTableRecord
100
AcDbLayerTableRecord
2
S001_PART_P0004
70
0
62
7
6
CONTINUOUS
0
LAYER
5
17
100
AcDbSymbolTableRecord
100
AcDbLayerTableRecord
2
S001_PART_P0014
70
0
62
7
6
CONTINUOUS
0
LAYER
5
18
100
AcDbSymbolTableRecord
100
AcDbLayerTableRecord
2
S001_PART_P0015
70
0
62
7
6
CONTINUOUS
0
LAYER
5
19
100
AcDbSymbolTableRecord
100
AcDbLayerTableRecord
2
S001_PART_P0012
70
0
62
7
6
CONTINUOUS
0
LAYER
5
1A
100
AcDbSymbolTableRecord
100
AcDbLayerTableRecord
2
S001_PART_P0013
70
0
62
7
6
CONTINUOUS
0
LAYER
5
1B
100
AcDbSymbolTableRecord
100
AcDbLayerTableRecord
2
S001_PART_P0018
70
0
62
7
6
CONTINUOUS
0
LAYER
5
1C
100
AcDbSymbolTableRecord
100
AcDbLayerTableRecord
2
S001_PART_P0019
70
0
62
7
6
CONTINUOUS
0
LAYER
5
1D
100
AcDbSymbolTableRecord
100
AcDbLayerTableRecord
2
S002_STOCK
70
0
62
8
6
CONTINUOUS
0
LAYER
5
1E
100
AcDbSymbolTableRecord
100
AcDbLayerTableRecord
2
S002_LABELS
70
0
62
2
6
CONTINUOUS
0
LAYER
5
1F
100
AcDbSymbolTableRecord
100
AcDbLayerTableRecord
2
S002_PART_P0006
70
0
62
7
6
CONTINUOUS
0
LAYER
5
20
100
AcDbSymbolTableRecord
100
AcDbLayerTableRecord
2
S002_PART_P0007
70
0
62
7
6
CONTINUOUS
0
LAYER
5
21
100
AcDbSymbolTableRecord
100
AcDbLayerTableRecord
2
S002_PART_P0020
70
0
62
7
6
CONTINUOUS
0
LAYER
5
22
100
AcDbSymbolTableRecord
100
AcDbLayerTableRecord
2
S002_PART_P0021
70
0
62
7
6
CONTINUOUS
0
LAYER
5
23
100
AcDbSymbolTableRecord
100
AcDbLayerTableRecord
2
S002_PART_P0008
70
0
62
7
6
CONTINUOUS
0
LAYER
5
24
100
AcDbSymbolTableRecord
100
AcDbLayerTableRecord
2
S003_STOCK
70
0
62
8
6
CONTINUOUS
0
LAYER
5
25
100
AcDbSymbolTableRecord
100
AcDbLayerTableRecord
2
S003_LABELS
70
0
62
2
6
CONTINUOUS
0
LAYER
5
26
100
AcDbSymbolTableRecord
100
AcDbLayerTableRecord
2
S003_PART_P0005
70
0
62
7
6
CONTINUOUS
0
LAYER
5
27
100
AcDbSymbolTableRecord
100
AcDbLayerTableRecord
2
S004_STOCK
70
0
62
8
6
CONTINUOUS
0
LAYER
5
28
100
AcDbSymbolTableRecord
100
AcDbLayerTableRecord
2
S004_LABELS
70
0
62
2
6
CONTINUOUS
0
LAYER
5
29
100
AcDbSymbolTableRecord
100
AcDbLayerTableRecord
2
S004_PART_P0010
70
0
62
7
6
CONTINUOUS
0
LAYER
5
2A
100
AcDbSymbolTableRecord
100
AcDbLayerTableRecord
2
S004_PART_P0009
70
0
62
7
6
CONTINUOUS
0
LAYER
5
2B
100
AcDbSymbolTableRecord
100
AcDbLayerTableRecord
2
S004_PART_P0023
70
0
62
7
6
CONTINUOUS
0
LAYER
5
2C
100
AcDbSymbolTableRecord
100
AcDbLayerTableRecord
2
S004_PART_P0024
70
0
62
7
6
CONTINUOUS
0
LAYER
5
2D
100
AcDbSymbolTableRecord
100
AcDbLayerTableRecord
2
S004_PART_P0011
70
0
62
7
6
CONTINUOUS
0
LAYER
5
2E
100
AcDbSymbolTableRecord
100
AcDbLayerTableRecord
2
S004_PART_P0017
70
0
62
7
6
CONTINUOUS
0
LAYER
5
2F
100
AcDbSymbolTableRecord
100
AcDbLayerTableRecord
2
S005_STOCK
70
0
62
8
6
CONTINUOUS
0
LAYER
5
30
100
AcDbSymbolTableRecord
100
AcDbLayerTableRecord
2
S005_LABELS
70
0
62
2
6
CONTINUOUS
0
LAYER
5
31
100
AcDbSymbolTableRecord
100
AcDbLayerTableRecord
2
S005_PART_P0016
70
0
62
7
6
CONTINUOUS
0
LAYER
5
32
100
AcDbSymbolTableRecord
100
AcDbLayerTableRecord
2
S005_PART_P0022
70
0
62
7
6
CONTINUOUS
0
ENDTAB
0
ENDSEC
0
SECTION
2
ENTITIES
999
GUILLOTINE SHEET LAYOUT; RAW CUT CONTOURS MM; EDGE ALREADY DEDUCTED; BLANK LAYERS ARE RECTANGULAR SAW BLANKS; SHAPED NOTCHES REQUIRE SECONDARY MACHINING; STOCK AND LABELS ARE NOT CUTS
999
S001 SHEET_JSON {"id":"sheet-1","materialId":"mdf-white","thickness":18,"width":2100,"height":2800,"margin":10,"kerf":3,"offsetX":0}
0
LWPOLYLINE
5
33
100
AcDbEntity
8
S001_STOCK
100
AcDbPolyline
90
4
70
1
10
0
20
0
10
2100
20
0
10
2100
20
2800
10
0
20
2800
0
TEXT
5
34
100
AcDbEntity
8
S001_LABELS
100
AcDbText
10
1050
20
2835
30
0
40
20
1
S001 2100x2800 T18 K3
50
0
7
STANDARD
72
1
11
1050
21
2835
31
0
100
AcDbText
73
2
0
TEXT
5
35
100
AcDbEntity
8
S001_LABELS
100
AcDbText
10
1050
20
2865
30
0
40
20
1
Y\U+0131ld\U+0131z MDFLAM \U+00B7 Beyaz VT_068 \U+00B7 18 mm / VT_068 / 18 mm
50
0
7
STANDARD
72
1
11
1050
21
2865
31
0
100
AcDbText
73
2
999
S001 P0001 PLACEMENT_JSON {"partId":"cabinet-1-part-1","instanceIndex":1,"quantity":1,"x":10,"y":10,"width":616,"height":2199,"rotated":false}
0
LWPOLYLINE
5
36
100
AcDbEntity
8
S001_PART_P0001
100
AcDbPolyline
90
4
70
1
10
10
20
2790
10
626
20
2790
10
626
20
591
10
10
20
591
0
TEXT
5
37
100
AcDbEntity
8
S001_LABELS
100
AcDbText
10
318
20
1690.5
30
0
40
18
1
P0001
50
0
7
STANDARD
72
1
11
318
21
1690.5
31
0
100
AcDbText
73
2
999
S001 P0002 PLACEMENT_JSON {"partId":"cabinet-1-part-2","instanceIndex":1,"quantity":1,"x":629,"y":10,"width":616,"height":2199,"rotated":false}
0
LWPOLYLINE
5
38
100
AcDbEntity
8
S001_PART_P0002
100
AcDbPolyline
90
4
70
1
10
629
20
2790
10
1245
20
2790
10
1245
20
591
10
629
20
591
0
TEXT
5
39
100
AcDbEntity
8
S001_LABELS
100
AcDbText
10
937
20
1690.5
30
0
40
18
1
P0002
50
0
7
STANDARD
72
1
11
937
21
1690.5
31
0
100
AcDbText
73
2
999
S001 P0003 PLACEMENT_JSON {"partId":"cabinet-1-part-3","instanceIndex":1,"quantity":1,"x":1248,"y":10,"width":616,"height":1164,"rotated":true}
0
LWPOLYLINE
5
3A
100
AcDbEntity
8
S001_PART_P0003
100
AcDbPolyline
90
4
70
1
10
1248
20
2790
10
1864
20
2790
10
1864
20
1626
10
1248
20
1626
0
TEXT
5
3B
100
AcDbEntity
8
S001_LABELS
100
AcDbText
10
1556
20
2208
30
0
40
18
1
P0003
50
0
7
STANDARD
72
1
11
1556
21
2208
31
0
100
AcDbText
73
2
999
S001 P0004 PLACEMENT_JSON {"partId":"cabinet-1-part-4","instanceIndex":1,"quantity":1,"x":1248,"y":1177,"width":616,"height":1164,"rotated":true}
0
LWPOLYLINE
5
3C
100
AcDbEntity
8
S001_PART_P0004
100
AcDbPolyline
90
4
70
1
10
1248
20
1623
10
1864
20
1623
10
1864
20
459
10
1248
20
459
0
TEXT
5
3D
100
AcDbEntity
8
S001_LABELS
100
AcDbText
10
1556
20
1041
30
0
40
18
1
P0004
50
0
7
STANDARD
72
1
11
1556
21
1041
31
0
100
AcDbText
73
2
999
S001 P0014 PLACEMENT_JSON {"partId":"cabinet-1-part-14","instanceIndex":1,"quantity":1,"x":1867,"y":10,"width":198,"height":1102,"rotated":true}
0
LWPOLYLINE
5
3E
100
AcDbEntity
8
S001_PART_P0014
100
AcDbPolyline
90
4
70
1
10
1867
20
2790
10
2065
20
2790
10
2065
20
1688
10
1867
20
1688
0
TEXT
5
3F
100
AcDbEntity
8
S001_LABELS
100
AcDbText
10
1966
20
2239
30
0
40
18
1
P0014
50
0
7
STANDARD
72
1
11
1966
21
2239
31
0
100
AcDbText
73
2
999
S001 P0015 PLACEMENT_JSON {"partId":"cabinet-1-part-15","instanceIndex":1,"quantity":1,"x":1867,"y":1177,"width":198,"height":1102,"rotated":true}
0
LWPOLYLINE
5
40
100
AcDbEntity
8
S001_PART_P0015
100
AcDbPolyline
90
4
70
1
10
1867
20
1623
10
2065
20
1623
10
2065
20
521
10
1867
20
521
0
TEXT
5
41
100
AcDbEntity
8
S001_LABELS
100
AcDbText
10
1966
20
1072
30
0
40
18
1
P0015
50
0
7
STANDARD
72
1
11
1966
21
1072
31
0
100
AcDbText
73
2
999
S001 P0012 PLACEMENT_JSON {"partId":"cabinet-1-part-12","instanceIndex":1,"quantity":1,"x":10,"y":2212,"width":198,"height":577,"rotated":true}
0
LWPOLYLINE
5
42
100
AcDbEntity
8
S001_PART_P0012
100
AcDbPolyline
90
4
70
1
10
10
20
588
10
208
20
588
10
208
20
11
10
10
20
11
0
TEXT
5
43
100
AcDbEntity
8
S001_LABELS
100
AcDbText
10
109
20
299.5
30
0
40
18
1
P0012
50
0
7
STANDARD
72
1
11
109
21
299.5
31
0
100
AcDbText
73
2
999
S001 P0013 PLACEMENT_JSON {"partId":"cabinet-1-part-13","instanceIndex":1,"quantity":1,"x":211,"y":2212,"width":198,"height":577,"rotated":true}
0
LWPOLYLINE
5
44
100
AcDbEntity
8
S001_PART_P0013
100
AcDbPolyline
90
4
70
1
10
211
20
588
10
409
20
588
10
409
20
11
10
211
20
11
0
TEXT
5
45
100
AcDbEntity
8
S001_LABELS
100
AcDbText
10
310
20
299.5
30
0
40
18
1
P0013
50
0
7
STANDARD
72
1
11
310
21
299.5
31
0
100
AcDbText
73
2
999
S001 P0018 PLACEMENT_JSON {"partId":"cabinet-1-part-18","instanceIndex":1,"quantity":1,"x":412,"y":2212,"width":198,"height":577,"rotated":true}
0
LWPOLYLINE
5
46
100
AcDbEntity
8
S001_PART_P0018
100
AcDbPolyline
90
4
70
1
10
412
20
588
10
610
20
588
10
610
20
11
10
412
20
11
0
TEXT
5
47
100
AcDbEntity
8
S001_LABELS
100
AcDbText
10
511
20
299.5
30
0
40
18
1
P0018
50
0
7
STANDARD
72
1
11
511
21
299.5
31
0
100
AcDbText
73
2
999
S001 P0019 PLACEMENT_JSON {"partId":"cabinet-1-part-19","instanceIndex":1,"quantity":1,"x":629,"y":2212,"width":198,"height":577,"rotated":true}
0
LWPOLYLINE
5
48
100
AcDbEntity
8
S001_PART_P0019
100
AcDbPolyline
90
4
70
1
10
629
20
588
10
827
20
588
10
827
20
11
10
629
20
11
0
TEXT
5
49
100
AcDbEntity
8
S001_LABELS
100
AcDbText
10
728
20
299.5
30
0
40
18
1
P0019
50
0
7
STANDARD
72
1
11
728
21
299.5
31
0
100
AcDbText
73
2
999
S002 SHEET_JSON {"id":"sheet-2","materialId":"mdf-white","thickness":18,"width":2100,"height":2800,"margin":10,"kerf":3,"offsetX":2200}
0
LWPOLYLINE
5
4A
100
AcDbEntity
8
S002_STOCK
100
AcDbPolyline
90
4
70
1
10
2200
20
0
10
4300
20
0
10
4300
20
2800
10
2200
20
2800
0
TEXT
5
4B
100
AcDbEntity
8
S002_LABELS
100
AcDbText
10
3250
20
2835
30
0
40
20
1
S002 2100x2800 T18 K3
50
0
7
STANDARD
72
1
11
3250
21
2835
31
0
100
AcDbText
73
2
0
TEXT
5
4C
100
AcDbEntity
8
S002_LABELS
100
AcDbText
10
3250
20
2865
30
0
40
20
1
Y\U+0131ld\U+0131z MDFLAM \U+00B7 Beyaz VT_068 \U+00B7 18 mm / VT_068 / 18 mm
50
0
7
STANDARD
72
1
11
3250
21
2865
31
0
100
AcDbText
73
2
999
S002 P0006 PLACEMENT_JSON {"partId":"cabinet-1-part-6","instanceIndex":1,"quantity":1,"x":10,"y":10,"width":1164,"height":616,"rotated":false}
0
LWPOLYLINE
5
4D
100
AcDbEntity
8
S002_PART_P0006
100
AcDbPolyline
90
4
70
1
10
2210
20
2790
10
3374
20
2790
10
3374
20
2174
10
2210
20
2174
0
TEXT
5
4E
100
AcDbEntity
8
S002_LABELS
100
AcDbText
10
2792
20
2482
30
0
40
18
1
P0006
50
0
7
STANDARD
72
1
11
2792
21
2482
31
0
100
AcDbText
73
2
999
S002 P0007 PLACEMENT_JSON {"partId":"cabinet-1-part-7","instanceIndex":1,"quantity":1,"x":10,"y":629,"width":1164,"height":616,"rotated":false}
0
LWPOLYLINE
5
4F
100
AcDbEntity
8
S002_PART_P0007
100
AcDbPolyline
90
4
70
1
10
2210
20
2171
10
3374
20
2171
10
3374
20
1555
10
2210
20
1555
0
TEXT
5
50
100
AcDbEntity
8
S002_LABELS
100
AcDbText
10
2792
20
1863
30
0
40
18
1
P0007
50
0
7
STANDARD
72
1
11
2792
21
1863
31
0
100
AcDbText
73
2
999
S002 P0020 PLACEMENT_JSON {"partId":"cabinet-1-part-20","instanceIndex":1,"quantity":1,"x":10,"y":1248,"width":198,"height":1102,"rotated":true}
0
LWPOLYLINE
5
51
100
AcDbEntity
8
S002_PART_P0020
100
AcDbPolyline
90
4
70
1
10
2210
20
1552
10
2408
20
1552
10
2408
20
450
10
2210
20
450
0
TEXT
5
52
100
AcDbEntity
8
S002_LABELS
100
AcDbText
10
2309
20
1001
30
0
40
18
1
P0020
50
0
7
STANDARD
72
1
11
2309
21
1001
31
0
100
AcDbText
73
2
999
S002 P0021 PLACEMENT_JSON {"partId":"cabinet-1-part-21","instanceIndex":1,"quantity":1,"x":211,"y":1248,"width":198,"height":1102,"rotated":true}
0
LWPOLYLINE
5
53
100
AcDbEntity
8
S002_PART_P0021
100
AcDbPolyline
90
4
70
1
10
2411
20
1552
10
2609
20
1552
10
2609
20
450
10
2411
20
450
0
TEXT
5
54
100
AcDbEntity
8
S002_LABELS
100
AcDbText
10
2510
20
1001
30
0
40
18
1
P0021
50
0
7
STANDARD
72
1
11
2510
21
1001
31
0
100
AcDbText
73
2
999
S002 P0008 PLACEMENT_JSON {"partId":"cabinet-1-part-8","instanceIndex":1,"quantity":1,"x":412,"y":1248,"width":89,"height":1164,"rotated":true}
0
LWPOLYLINE
5
55
100
AcDbEntity
8
S002_PART_P0008
100
AcDbPolyline
90
4
70
1
10
2612
20
1552
10
2701
20
1552
10
2701
20
388
10
2612
20
388
0
TEXT
5
56
100
AcDbEntity
8
S002_LABELS
100
AcDbText
10
2656.5
20
970
30
0
40
18
1
P0008
50
0
7
STANDARD
72
1
11
2656.5
21
970
31
0
100
AcDbText
73
2
999
S003 SHEET_JSON {"id":"sheet-3","materialId":"thin-back-3","thickness":3,"width":2100,"height":2800,"margin":10,"kerf":3,"offsetX":4400}
0
LWPOLYLINE
5
57
100
AcDbEntity
8
S003_STOCK
100
AcDbPolyline
90
4
70
1
10
4400
20
0
10
6500
20
0
10
6500
20
2800
10
4400
20
2800
0
TEXT
5
58
100
AcDbEntity
8
S003_LABELS
100
AcDbText
10
5450
20
2835
30
0
40
20
1
S003 2100x2800 T3 K3
50
0
7
STANDARD
72
1
11
5450
21
2835
31
0
100
AcDbText
73
2
0
TEXT
5
59
100
AcDbEntity
8
S003_LABELS
100
AcDbText
10
5450
20
2865
30
0
40
20
1
Sert lif levha \U+00B7 arkal\U+0131k \U+00B7 3 mm / 3 mm
50
0
7
STANDARD
72
1
11
5450
21
2865
31
0
100
AcDbText
73
2
999
S003 P0005 PLACEMENT_JSON {"partId":"cabinet-1-part-5","instanceIndex":1,"quantity":1,"x":10,"y":10,"width":1200,"height":2100,"rotated":false}
0
LWPOLYLINE
5
5A
100
AcDbEntity
8
S003_PART_P0005
100
AcDbPolyline
90
4
70
1
10
4410
20
2790
10
5610
20
2790
10
5610
20
690
10
4410
20
690
0
TEXT
5
5B
100
AcDbEntity
8
S003_LABELS
100
AcDbText
10
5010
20
1740
30
0
40
18
1
P0005
50
0
7
STANDARD
72
1
11
5010
21
1740
31
0
100
AcDbText
73
2
999
S004 SHEET_JSON {"id":"sheet-4","materialId":"mdf-oak","thickness":18,"width":2100,"height":2800,"margin":10,"kerf":3,"offsetX":6600}
0
LWPOLYLINE
5
5C
100
AcDbEntity
8
S004_STOCK
100
AcDbPolyline
90
4
70
1
10
6600
20
0
10
8700
20
0
10
8700
20
2800
10
6600
20
2800
0
TEXT
5
5D
100
AcDbEntity
8
S004_LABELS
100
AcDbText
10
7650
20
2835
30
0
40
20
1
S004 2100x2800 T18 K3
50
0
7
STANDARD
72
1
11
7650
21
2835
31
0
100
AcDbText
73
2
0
TEXT
5
5E
100
AcDbEntity
8
S004_LABELS
100
AcDbText
10
7650
20
2865
30
0
40
20
1
Y\U+0131ld\U+0131z MDFLAM \U+00B7 Valley Me\U+015Fe YT_10E \U+00B7 18 mm / YT_10E / 18 mm
50
0
7
STANDARD
72
1
11
7650
21
2865
31
0
100
AcDbText
73
2
999
S004 P0010 PLACEMENT_JSON {"partId":"cabinet-1-part-10","instanceIndex":1,"quantity":1,"x":10,"y":10,"width":595,"height":922,"rotated":false}
0
LWPOLYLINE
5
5F
100
AcDbEntity
8
S004_PART_P0010
100
AcDbPolyline
90
4
70
1
10
6610
20
2790
10
7205
20
2790
10
7205
20
1868
10
6610
20
1868
0
TEXT
5
60
100
AcDbEntity
8
S004_LABELS
100
AcDbText
10
6907.5
20
2329
30
0
40
18
1
P0010
50
0
7
STANDARD
72
1
11
6907.5
21
2329
31
0
100
AcDbText
73
2
999
S004 P0009 PLACEMENT_JSON {"partId":"cabinet-1-part-9","instanceIndex":1,"quantity":1,"x":10,"y":935,"width":595,"height":922,"rotated":false}
0
LWPOLYLINE
5
61
100
AcDbEntity
8
S004_PART_P0009
100
AcDbPolyline
90
4
70
1
10
6610
20
1865
10
7205
20
1865
10
7205
20
943
10
6610
20
943
0
TEXT
5
62
100
AcDbEntity
8
S004_LABELS
100
AcDbText
10
6907.5
20
1404
30
0
40
18
1
P0009
50
0
7
STANDARD
72
1
11
6907.5
21
1404
31
0
100
AcDbText
73
2
999
S004 P0023 PLACEMENT_JSON {"partId":"cabinet-1-part-23","instanceIndex":1,"quantity":1,"x":10,"y":1860,"width":595,"height":670,"rotated":false}
0
LWPOLYLINE
5
63
100
AcDbEntity
8
S004_PART_P0023
100
AcDbPolyline
90
4
70
1
10
6610
20
940
10
7205
20
940
10
7205
20
270
10
6610
20
270
0
TEXT
5
64
100
AcDbEntity
8
S004_LABELS
100
AcDbText
10
6907.5
20
605
30
0
40
18
1
P0023
50
0
7
STANDARD
72
1
11
6907.5
21
605
31
0
100
AcDbText
73
2
999
S004 P0024 PLACEMENT_JSON {"partId":"cabinet-1-part-24","instanceIndex":1,"quantity":1,"x":608,"y":10,"width":595,"height":670,"rotated":false}
0
LWPOLYLINE
5
65
100
AcDbEntity
8
S004_PART_P0024
100
AcDbPolyline
90
4
70
1
10
7208
20
2790
10
7803
20
2790
10
7803
20
2120
10
7208
20
2120
0
TEXT
5
66
100
AcDbEntity
8
S004_LABELS
100
AcDbText
10
7505.5
20
2455
30
0
40
18
1
P0024
50
0
7
STANDARD
72
1
11
7505.5
21
2455
31
0
100
AcDbText
73
2
999
S004 P0011 PLACEMENT_JSON {"partId":"cabinet-1-part-11","instanceIndex":1,"quantity":1,"x":608,"y":683,"width":1194,"height":245,"rotated":false}
0
LWPOLYLINE
5
67
100
AcDbEntity
8
S004_PART_P0011
100
AcDbPolyline
90
4
70
1
10
7208
20
2117
10
8402
20
2117
10
8402
20
1872
10
7208
20
1872
0
TEXT
5
68
100
AcDbEntity
8
S004_LABELS
100
AcDbText
10
7805
20
1994.5
30
0
40
18
1
P0011
50
0
7
STANDARD
72
1
11
7805
21
1994.5
31
0
100
AcDbText
73
2
999
S004 P0017 PLACEMENT_JSON {"partId":"cabinet-1-part-17","instanceIndex":1,"quantity":1,"x":608,"y":931,"width":1194,"height":245,"rotated":false}
0
LWPOLYLINE
5
69
100
AcDbEntity
8
S004_PART_P0017
100
AcDbPolyline
90
4
70
1
10
7208
20
1869
10
8402
20
1869
10
8402
20
1624
10
7208
20
1624
0
TEXT
5
6A
100
AcDbEntity
8
S004_LABELS
100
AcDbText
10
7805
20
1746.5
30
0
40
18
1
P0017
50
0
7
STANDARD
72
1
11
7805
21
1746.5
31
0
100
AcDbText
73
2
999
S005 SHEET_JSON {"id":"sheet-5","materialId":"hdf-back","thickness":8,"width":2100,"height":2800,"margin":10,"kerf":3,"offsetX":8800}
0
LWPOLYLINE
5
6B
100
AcDbEntity
8
S005_STOCK
100
AcDbPolyline
90
4
70
1
10
8800
20
0
10
10900
20
0
10
10900
20
2800
10
8800
20
2800
0
TEXT
5
6C
100
AcDbEntity
8
S005_LABELS
100
AcDbText
10
9850
20
2835
30
0
40
20
1
S005 2100x2800 T8 K3
50
0
7
STANDARD
72
1
11
9850
21
2835
31
0
100
AcDbText
73
2
0
TEXT
5
6D
100
AcDbEntity
8
S005_LABELS
100
AcDbText
10
9850
20
2865
30
0
40
20
1
Y\U+0131ld\U+0131z MDFLAM \U+00B7 Beyaz VT_068 \U+00B7 8 mm / VT_068 / 8 mm
50
0
7
STANDARD
72
1
11
9850
21
2865
31
0
100
AcDbText
73
2
999
S005 P0016 PLACEMENT_JSON {"partId":"cabinet-1-part-16","instanceIndex":1,"quantity":1,"x":10,"y":10,"width":1138,"height":577,"rotated":false}
0
LWPOLYLINE
5
6E
100
AcDbEntity
8
S005_PART_P0016
100
AcDbPolyline
90
4
70
1
10
8810
20
2790
10
9948
20
2790
10
9948
20
2213
10
8810
20
2213
0
TEXT
5
6F
100
AcDbEntity
8
S005_LABELS
100
AcDbText
10
9379
20
2501.5
30
0
40
18
1
P0016
50
0
7
STANDARD
72
1
11
9379
21
2501.5
31
0
100
AcDbText
73
2
999
S005 P0022 PLACEMENT_JSON {"partId":"cabinet-1-part-22","instanceIndex":1,"quantity":1,"x":10,"y":590,"width":1138,"height":577,"rotated":false}
0
LWPOLYLINE
5
70
100
AcDbEntity
8
S005_PART_P0022
100
AcDbPolyline
90
4
70
1
10
8810
20
2210
10
9948
20
2210
10
9948
20
1633
10
8810
20
1633
0
TEXT
5
71
100
AcDbEntity
8
S005_LABELS
100
AcDbText
10
9379
20
1921.5
30
0
40
18
1
P0022
50
0
7
STANDARD
72
1
11
9379
21
1921.5
31
0
100
AcDbText
73
2
0
ENDSEC
0
EOF
