0
SECTION
2
HEADER
9
$ACADVER
1
AC1015
9
$INSUNITS
70
4
9
$MEASUREMENT
70
1
9
$LUNITS
70
2
9
$LUPREC
70
3
9
$EXTMIN
10
0
20
0
30
0
9
$EXTMAX
10
616
20
2200
30
0
0
ENDSEC
0
SECTION
2
TABLES
0
TABLE
2
LAYER
5
10
100
AcDbSymbolTable
70
1
0
LAYER
5
11
100
AcDbSymbolTableRecord
100
AcDbLayerTableRecord
2
CUT
70
0
62
7
6
CONTINUOUS
0
ENDTAB
0
ENDSEC
0
SECTION
2
ENTITIES
999
P0001 CUT_BLANK MM; NO TOOL COMPENSATION; NO DRILLING
0
LWPOLYLINE
5
12
100
AcDbEntity
8
CUT
100
AcDbPolyline
90
4
70
1
10
0
20
2200
10
616
20
2200
10
616
20
0
10
0
20
0
0
ENDSEC
0
EOF
